M48
;DRILL file {KiCad 4.0.6} date 06/06/17 10:00:35
;FORMAT={-:-/ absolute / metric / decimal}
FMAT,2
METRIC,TZ
T1C0.400
T2C1.000
T3C1.016
T4C2.300
%
G90
G05
M71
T1
X125.5Y-83.5
X125.5Y-92.5
X125.5Y-98.25
X125.75Y-95.25
X131.Y-95.75
X131.75Y-86.25
X131.75Y-90.
X132.25Y-83.5
X132.25Y-94.5
X133.75Y-98.25
X138.918Y-100.047
X140.Y-96.5
X142.25Y-85.5
X146.25Y-91.25
X146.75Y-95.25
X154.Y-80.5
X155.Y-85.75
T2
X156.75Y-90.14
X156.75Y-92.68
X156.75Y-94.71
X156.75Y-97.25
T3
X118.525Y-87.9
X118.525Y-90.44
X118.525Y-92.98
X118.525Y-95.52
X118.525Y-98.06
X118.525Y-100.6
T4
X159.42Y-87.09
X159.42Y-100.81
T0
M30
