G04 #@! TF.FileFunction,Paste,Top*
%FSLAX46Y46*%
G04 Gerber Fmt 4.6, Leading zero omitted, Abs format (unit mm)*
G04 Created by KiCad (PCBNEW 4.0.6) date 06/06/17 10:00:33*
%MOMM*%
%LPD*%
G01*
G04 APERTURE LIST*
%ADD10C,0.100000*%
%ADD11R,1.500000X1.250000*%
%ADD12R,1.250000X1.500000*%
%ADD13R,1.200000X1.200000*%
%ADD14R,1.500000X1.300000*%
%ADD15R,1.300000X1.500000*%
%ADD16R,1.500000X0.600000*%
%ADD17R,0.650000X1.060000*%
%ADD18R,0.280000X1.200000*%
%ADD19R,1.200000X0.280000*%
%ADD20R,1.950000X1.500000*%
G04 APERTURE END LIST*
D10*
D11*
X144350000Y-100000000D03*
X146850000Y-100000000D03*
X150550000Y-99800000D03*
X153050000Y-99800000D03*
D12*
X136500000Y-101250000D03*
X136500000Y-103750000D03*
D11*
X145650000Y-88000000D03*
X143150000Y-88000000D03*
X149150000Y-88000000D03*
X151650000Y-88000000D03*
D12*
X136750000Y-83250000D03*
X136750000Y-85750000D03*
D11*
X126750000Y-86750000D03*
X124250000Y-86750000D03*
D13*
X126400000Y-81250000D03*
X128600000Y-81250000D03*
D14*
X149190000Y-91150000D03*
X151890000Y-91150000D03*
X149190000Y-93690000D03*
X151890000Y-93690000D03*
D15*
X120000000Y-84100000D03*
X120000000Y-81400000D03*
D16*
X123050000Y-90805000D03*
X123050000Y-92075000D03*
X123050000Y-93345000D03*
X123050000Y-94615000D03*
X123050000Y-95885000D03*
X123050000Y-97155000D03*
X123050000Y-98425000D03*
X123050000Y-99695000D03*
X128450000Y-99695000D03*
X128450000Y-98425000D03*
X128450000Y-97155000D03*
X128450000Y-95885000D03*
X128450000Y-94615000D03*
X128450000Y-93345000D03*
X128450000Y-92075000D03*
X128450000Y-90805000D03*
D17*
X152950000Y-82150000D03*
X152000000Y-82150000D03*
X151050000Y-82150000D03*
X151050000Y-84350000D03*
X152950000Y-84350000D03*
D18*
X140860000Y-91710000D03*
X140360000Y-91710000D03*
X139860000Y-91710000D03*
X139360000Y-91710000D03*
X138860000Y-91710000D03*
X138360000Y-91710000D03*
X137860000Y-91710000D03*
X137360000Y-91710000D03*
D19*
X135860000Y-93210000D03*
X135860000Y-93710000D03*
X135860000Y-94210000D03*
X135860000Y-94710000D03*
X135860000Y-95210000D03*
X135860000Y-95710000D03*
X135860000Y-96210000D03*
X135860000Y-96710000D03*
D18*
X137360000Y-98210000D03*
X137860000Y-98210000D03*
X138360000Y-98210000D03*
X138860000Y-98210000D03*
X139360000Y-98210000D03*
X139860000Y-98210000D03*
X140360000Y-98210000D03*
X140860000Y-98210000D03*
D19*
X142360000Y-96710000D03*
X142360000Y-96210000D03*
X142360000Y-95710000D03*
X142360000Y-95210000D03*
X142360000Y-94710000D03*
X142360000Y-94210000D03*
X142360000Y-93710000D03*
X142360000Y-93210000D03*
D20*
X142425000Y-83200000D03*
X145175000Y-83200000D03*
M02*
