G04 #@! TF.FileFunction,Legend,Top*
%FSLAX46Y46*%
G04 Gerber Fmt 4.6, Leading zero omitted, Abs format (unit mm)*
G04 Created by KiCad (PCBNEW 4.0.6) date 06/06/17 10:00:33*
%MOMM*%
%LPD*%
G01*
G04 APERTURE LIST*
%ADD10C,0.100000*%
%ADD11C,0.300000*%
%ADD12C,0.200000*%
%ADD13C,0.250000*%
%ADD14C,0.120000*%
%ADD15C,0.381000*%
%ADD16C,0.150000*%
G04 APERTURE END LIST*
D10*
D11*
X141321428Y-85357143D02*
X140178571Y-85357143D01*
X140750000Y-85928571D02*
X140750000Y-84785714D01*
D12*
X119585714Y-104566667D02*
X120300000Y-104566667D01*
X119442857Y-104852381D02*
X119942857Y-103852381D01*
X120442857Y-104852381D01*
X120942857Y-104852381D02*
X120942857Y-104185714D01*
X120942857Y-103852381D02*
X120871428Y-103900000D01*
X120942857Y-103947619D01*
X121014285Y-103900000D01*
X120942857Y-103852381D01*
X120942857Y-103947619D01*
X121657143Y-104852381D02*
X121657143Y-104185714D01*
X121657143Y-104376190D02*
X121728571Y-104280952D01*
X121800000Y-104233333D01*
X121942857Y-104185714D01*
X122085714Y-104185714D01*
X123085714Y-104328571D02*
X123300000Y-104376190D01*
X123371428Y-104423810D01*
X123442857Y-104519048D01*
X123442857Y-104661905D01*
X123371428Y-104757143D01*
X123300000Y-104804762D01*
X123157142Y-104852381D01*
X122585714Y-104852381D01*
X122585714Y-103852381D01*
X123085714Y-103852381D01*
X123228571Y-103900000D01*
X123300000Y-103947619D01*
X123371428Y-104042857D01*
X123371428Y-104138095D01*
X123300000Y-104233333D01*
X123228571Y-104280952D01*
X123085714Y-104328571D01*
X122585714Y-104328571D01*
X124728571Y-104852381D02*
X124728571Y-104328571D01*
X124657142Y-104233333D01*
X124514285Y-104185714D01*
X124228571Y-104185714D01*
X124085714Y-104233333D01*
X124728571Y-104804762D02*
X124585714Y-104852381D01*
X124228571Y-104852381D01*
X124085714Y-104804762D01*
X124014285Y-104709524D01*
X124014285Y-104614286D01*
X124085714Y-104519048D01*
X124228571Y-104471429D01*
X124585714Y-104471429D01*
X124728571Y-104423810D01*
X125442857Y-104852381D02*
X125442857Y-104185714D01*
X125442857Y-104376190D02*
X125514285Y-104280952D01*
X125585714Y-104233333D01*
X125728571Y-104185714D01*
X125871428Y-104185714D01*
X126371428Y-104852381D02*
X126371428Y-103852381D01*
X126728571Y-103852381D01*
X126942856Y-103900000D01*
X127085714Y-103995238D01*
X127157142Y-104090476D01*
X127228571Y-104280952D01*
X127228571Y-104423810D01*
X127157142Y-104614286D01*
X127085714Y-104709524D01*
X126942856Y-104804762D01*
X126728571Y-104852381D01*
X126371428Y-104852381D01*
X128514285Y-104185714D02*
X128514285Y-104852381D01*
X127871428Y-104185714D02*
X127871428Y-104709524D01*
X127942856Y-104804762D01*
X128085714Y-104852381D01*
X128299999Y-104852381D01*
X128442856Y-104804762D01*
X128514285Y-104757143D01*
X129228571Y-104852381D02*
X129228571Y-104185714D01*
X129228571Y-103852381D02*
X129157142Y-103900000D01*
X129228571Y-103947619D01*
X129299999Y-103900000D01*
X129228571Y-103852381D01*
X129228571Y-103947619D01*
X129942857Y-104185714D02*
X129942857Y-104852381D01*
X129942857Y-104280952D02*
X130014285Y-104233333D01*
X130157143Y-104185714D01*
X130371428Y-104185714D01*
X130514285Y-104233333D01*
X130585714Y-104328571D01*
X130585714Y-104852381D01*
X131514286Y-104852381D02*
X131371428Y-104804762D01*
X131300000Y-104757143D01*
X131228571Y-104661905D01*
X131228571Y-104376190D01*
X131300000Y-104280952D01*
X131371428Y-104233333D01*
X131514286Y-104185714D01*
X131728571Y-104185714D01*
X131871428Y-104233333D01*
X131942857Y-104280952D01*
X132014286Y-104376190D01*
X132014286Y-104661905D01*
X131942857Y-104757143D01*
X131871428Y-104804762D01*
X131728571Y-104852381D01*
X131514286Y-104852381D01*
D11*
X123888572Y-80117143D02*
X125031429Y-80117143D01*
X124460000Y-80688571D02*
X124460000Y-79545714D01*
X119341428Y-105858571D02*
X119627142Y-105858571D01*
X119770000Y-105930000D01*
X119912857Y-106072857D01*
X119984285Y-106358571D01*
X119984285Y-106858571D01*
X119912857Y-107144286D01*
X119770000Y-107287143D01*
X119627142Y-107358571D01*
X119341428Y-107358571D01*
X119198571Y-107287143D01*
X119055714Y-107144286D01*
X118984285Y-106858571D01*
X118984285Y-106358571D01*
X119055714Y-106072857D01*
X119198571Y-105930000D01*
X119341428Y-105858571D01*
X120912857Y-105858571D02*
X121198571Y-105858571D01*
X121341429Y-105930000D01*
X121484286Y-106072857D01*
X121555714Y-106358571D01*
X121555714Y-106858571D01*
X121484286Y-107144286D01*
X121341429Y-107287143D01*
X121198571Y-107358571D01*
X120912857Y-107358571D01*
X120770000Y-107287143D01*
X120627143Y-107144286D01*
X120555714Y-106858571D01*
X120555714Y-106358571D01*
X120627143Y-106072857D01*
X120770000Y-105930000D01*
X120912857Y-105858571D01*
X121984286Y-105858571D02*
X122841429Y-105858571D01*
X122412858Y-107358571D02*
X122412858Y-105858571D01*
X123270000Y-107287143D02*
X123484286Y-107358571D01*
X123841429Y-107358571D01*
X123984286Y-107287143D01*
X124055715Y-107215714D01*
X124127143Y-107072857D01*
X124127143Y-106930000D01*
X124055715Y-106787143D01*
X123984286Y-106715714D01*
X123841429Y-106644286D01*
X123555715Y-106572857D01*
X123412857Y-106501429D01*
X123341429Y-106430000D01*
X123270000Y-106287143D01*
X123270000Y-106144286D01*
X123341429Y-106001429D01*
X123412857Y-105930000D01*
X123555715Y-105858571D01*
X123912857Y-105858571D01*
X124127143Y-105930000D01*
X124770000Y-107358571D02*
X124770000Y-105858571D01*
X125484286Y-107358571D02*
X125484286Y-105858571D01*
X125841429Y-105858571D01*
X126055714Y-105930000D01*
X126198572Y-106072857D01*
X126270000Y-106215714D01*
X126341429Y-106501429D01*
X126341429Y-106715714D01*
X126270000Y-107001429D01*
X126198572Y-107144286D01*
X126055714Y-107287143D01*
X125841429Y-107358571D01*
X125484286Y-107358571D01*
X126984286Y-106572857D02*
X127484286Y-106572857D01*
X127698572Y-107358571D02*
X126984286Y-107358571D01*
X126984286Y-105858571D01*
X127698572Y-105858571D01*
X128841429Y-106572857D02*
X129055715Y-106644286D01*
X129127143Y-106715714D01*
X129198572Y-106858571D01*
X129198572Y-107072857D01*
X129127143Y-107215714D01*
X129055715Y-107287143D01*
X128912857Y-107358571D01*
X128341429Y-107358571D01*
X128341429Y-105858571D01*
X128841429Y-105858571D01*
X128984286Y-105930000D01*
X129055715Y-106001429D01*
X129127143Y-106144286D01*
X129127143Y-106287143D01*
X129055715Y-106430000D01*
X128984286Y-106501429D01*
X128841429Y-106572857D01*
X128341429Y-106572857D01*
X130127143Y-105858571D02*
X130412857Y-105858571D01*
X130555715Y-105930000D01*
X130698572Y-106072857D01*
X130770000Y-106358571D01*
X130770000Y-106858571D01*
X130698572Y-107144286D01*
X130555715Y-107287143D01*
X130412857Y-107358571D01*
X130127143Y-107358571D01*
X129984286Y-107287143D01*
X129841429Y-107144286D01*
X129770000Y-106858571D01*
X129770000Y-106358571D01*
X129841429Y-106072857D01*
X129984286Y-105930000D01*
X130127143Y-105858571D01*
X131270001Y-105858571D02*
X132270001Y-107358571D01*
X132270001Y-105858571D02*
X131270001Y-107358571D01*
X132841429Y-107215714D02*
X132912857Y-107287143D01*
X132841429Y-107358571D01*
X132770000Y-107287143D01*
X132841429Y-107215714D01*
X132841429Y-107358571D01*
X134198572Y-107287143D02*
X134055715Y-107358571D01*
X133770001Y-107358571D01*
X133627143Y-107287143D01*
X133555715Y-107215714D01*
X133484286Y-107072857D01*
X133484286Y-106644286D01*
X133555715Y-106501429D01*
X133627143Y-106430000D01*
X133770001Y-106358571D01*
X134055715Y-106358571D01*
X134198572Y-106430000D01*
X135055715Y-107358571D02*
X134912857Y-107287143D01*
X134841429Y-107215714D01*
X134770000Y-107072857D01*
X134770000Y-106644286D01*
X134841429Y-106501429D01*
X134912857Y-106430000D01*
X135055715Y-106358571D01*
X135270000Y-106358571D01*
X135412857Y-106430000D01*
X135484286Y-106501429D01*
X135555715Y-106644286D01*
X135555715Y-107072857D01*
X135484286Y-107215714D01*
X135412857Y-107287143D01*
X135270000Y-107358571D01*
X135055715Y-107358571D01*
X136198572Y-107358571D02*
X136198572Y-106358571D01*
X136198572Y-106501429D02*
X136270000Y-106430000D01*
X136412858Y-106358571D01*
X136627143Y-106358571D01*
X136770000Y-106430000D01*
X136841429Y-106572857D01*
X136841429Y-107358571D01*
X136841429Y-106572857D02*
X136912858Y-106430000D01*
X137055715Y-106358571D01*
X137270000Y-106358571D01*
X137412858Y-106430000D01*
X137484286Y-106572857D01*
X137484286Y-107358571D01*
D13*
X114500001Y-95857143D02*
X114428572Y-95904762D01*
X114214286Y-95952381D01*
X114071429Y-95952381D01*
X113857144Y-95904762D01*
X113714286Y-95809524D01*
X113642858Y-95714286D01*
X113571429Y-95523810D01*
X113571429Y-95380952D01*
X113642858Y-95190476D01*
X113714286Y-95095238D01*
X113857144Y-95000000D01*
X114071429Y-94952381D01*
X114214286Y-94952381D01*
X114428572Y-95000000D01*
X114500001Y-95047619D01*
X115071429Y-95904762D02*
X115285715Y-95952381D01*
X115642858Y-95952381D01*
X115785715Y-95904762D01*
X115857144Y-95857143D01*
X115928572Y-95761905D01*
X115928572Y-95666667D01*
X115857144Y-95571429D01*
X115785715Y-95523810D01*
X115642858Y-95476190D01*
X115357144Y-95428571D01*
X115214286Y-95380952D01*
X115142858Y-95333333D01*
X115071429Y-95238095D01*
X115071429Y-95142857D01*
X115142858Y-95047619D01*
X115214286Y-95000000D01*
X115357144Y-94952381D01*
X115714286Y-94952381D01*
X115928572Y-95000000D01*
X112142857Y-98452381D02*
X112142857Y-97452381D01*
X112642857Y-98166667D01*
X113142857Y-97452381D01*
X113142857Y-98452381D01*
X114142857Y-97452381D02*
X114428571Y-97452381D01*
X114571429Y-97500000D01*
X114714286Y-97595238D01*
X114785714Y-97785714D01*
X114785714Y-98119048D01*
X114714286Y-98309524D01*
X114571429Y-98404762D01*
X114428571Y-98452381D01*
X114142857Y-98452381D01*
X114000000Y-98404762D01*
X113857143Y-98309524D01*
X113785714Y-98119048D01*
X113785714Y-97785714D01*
X113857143Y-97595238D01*
X114000000Y-97500000D01*
X114142857Y-97452381D01*
X115357143Y-98404762D02*
X115571429Y-98452381D01*
X115928572Y-98452381D01*
X116071429Y-98404762D01*
X116142858Y-98357143D01*
X116214286Y-98261905D01*
X116214286Y-98166667D01*
X116142858Y-98071429D01*
X116071429Y-98023810D01*
X115928572Y-97976190D01*
X115642858Y-97928571D01*
X115500000Y-97880952D01*
X115428572Y-97833333D01*
X115357143Y-97738095D01*
X115357143Y-97642857D01*
X115428572Y-97547619D01*
X115500000Y-97500000D01*
X115642858Y-97452381D01*
X116000000Y-97452381D01*
X116214286Y-97500000D01*
X116857143Y-98452381D02*
X116857143Y-97452381D01*
X112142857Y-101202381D02*
X112142857Y-100202381D01*
X112642857Y-100916667D01*
X113142857Y-100202381D01*
X113142857Y-101202381D01*
X113857143Y-101202381D02*
X113857143Y-100202381D01*
X114500000Y-101154762D02*
X114714286Y-101202381D01*
X115071429Y-101202381D01*
X115214286Y-101154762D01*
X115285715Y-101107143D01*
X115357143Y-101011905D01*
X115357143Y-100916667D01*
X115285715Y-100821429D01*
X115214286Y-100773810D01*
X115071429Y-100726190D01*
X114785715Y-100678571D01*
X114642857Y-100630952D01*
X114571429Y-100583333D01*
X114500000Y-100488095D01*
X114500000Y-100392857D01*
X114571429Y-100297619D01*
X114642857Y-100250000D01*
X114785715Y-100202381D01*
X115142857Y-100202381D01*
X115357143Y-100250000D01*
X116285714Y-100202381D02*
X116571428Y-100202381D01*
X116714286Y-100250000D01*
X116857143Y-100345238D01*
X116928571Y-100535714D01*
X116928571Y-100869048D01*
X116857143Y-101059524D01*
X116714286Y-101154762D01*
X116571428Y-101202381D01*
X116285714Y-101202381D01*
X116142857Y-101154762D01*
X116000000Y-101059524D01*
X115928571Y-100869048D01*
X115928571Y-100535714D01*
X116000000Y-100345238D01*
X116142857Y-100250000D01*
X116285714Y-100202381D01*
X112571429Y-93654762D02*
X112785715Y-93702381D01*
X113142858Y-93702381D01*
X113285715Y-93654762D01*
X113357144Y-93607143D01*
X113428572Y-93511905D01*
X113428572Y-93416667D01*
X113357144Y-93321429D01*
X113285715Y-93273810D01*
X113142858Y-93226190D01*
X112857144Y-93178571D01*
X112714286Y-93130952D01*
X112642858Y-93083333D01*
X112571429Y-92988095D01*
X112571429Y-92892857D01*
X112642858Y-92797619D01*
X112714286Y-92750000D01*
X112857144Y-92702381D01*
X113214286Y-92702381D01*
X113428572Y-92750000D01*
X114928572Y-93607143D02*
X114857143Y-93654762D01*
X114642857Y-93702381D01*
X114500000Y-93702381D01*
X114285715Y-93654762D01*
X114142857Y-93559524D01*
X114071429Y-93464286D01*
X114000000Y-93273810D01*
X114000000Y-93130952D01*
X114071429Y-92940476D01*
X114142857Y-92845238D01*
X114285715Y-92750000D01*
X114500000Y-92702381D01*
X114642857Y-92702381D01*
X114857143Y-92750000D01*
X114928572Y-92797619D01*
X115571429Y-93702381D02*
X115571429Y-92702381D01*
X116428572Y-93702381D02*
X115785715Y-93130952D01*
X116428572Y-92702381D02*
X115571429Y-93273810D01*
X113357143Y-90250000D02*
X113214286Y-90202381D01*
X113000000Y-90202381D01*
X112785715Y-90250000D01*
X112642857Y-90345238D01*
X112571429Y-90440476D01*
X112500000Y-90630952D01*
X112500000Y-90773810D01*
X112571429Y-90964286D01*
X112642857Y-91059524D01*
X112785715Y-91154762D01*
X113000000Y-91202381D01*
X113142857Y-91202381D01*
X113357143Y-91154762D01*
X113428572Y-91107143D01*
X113428572Y-90773810D01*
X113142857Y-90773810D01*
X114071429Y-91202381D02*
X114071429Y-90202381D01*
X114928572Y-91202381D01*
X114928572Y-90202381D01*
X115642858Y-91202381D02*
X115642858Y-90202381D01*
X116000001Y-90202381D01*
X116214286Y-90250000D01*
X116357144Y-90345238D01*
X116428572Y-90440476D01*
X116500001Y-90630952D01*
X116500001Y-90773810D01*
X116428572Y-90964286D01*
X116357144Y-91059524D01*
X116214286Y-91154762D01*
X116000001Y-91202381D01*
X115642858Y-91202381D01*
X112321429Y-88071429D02*
X113464286Y-88071429D01*
X112892857Y-88452381D02*
X112892857Y-87690476D01*
X114892858Y-87452381D02*
X114178572Y-87452381D01*
X114107143Y-87928571D01*
X114178572Y-87880952D01*
X114321429Y-87833333D01*
X114678572Y-87833333D01*
X114821429Y-87880952D01*
X114892858Y-87928571D01*
X114964286Y-88023810D01*
X114964286Y-88261905D01*
X114892858Y-88357143D01*
X114821429Y-88404762D01*
X114678572Y-88452381D01*
X114321429Y-88452381D01*
X114178572Y-88404762D01*
X114107143Y-88357143D01*
X115392857Y-87452381D02*
X115892857Y-88452381D01*
X116392857Y-87452381D01*
D14*
X140300000Y-107350000D02*
X152900000Y-107350000D01*
X152900000Y-107350000D02*
X152900000Y-102250000D01*
X152900000Y-102250000D02*
X140300000Y-102250000D01*
D15*
X119795400Y-101920800D02*
X119795400Y-86630000D01*
X117255400Y-101920800D02*
X117255400Y-86630000D01*
X117280800Y-86630000D02*
X119795400Y-86630000D01*
X119795400Y-101920800D02*
X117280800Y-101920800D01*
D14*
X146100000Y-99150000D02*
X145100000Y-99150000D01*
X145100000Y-100850000D02*
X146100000Y-100850000D01*
X152300000Y-98950000D02*
X151300000Y-98950000D01*
X151300000Y-100650000D02*
X152300000Y-100650000D01*
X137350000Y-103000000D02*
X137350000Y-102000000D01*
X135650000Y-102000000D02*
X135650000Y-103000000D01*
X143900000Y-88850000D02*
X144900000Y-88850000D01*
X144900000Y-87150000D02*
X143900000Y-87150000D01*
X150900000Y-87150000D02*
X149900000Y-87150000D01*
X149900000Y-88850000D02*
X150900000Y-88850000D01*
X137600000Y-85000000D02*
X137600000Y-84000000D01*
X135900000Y-84000000D02*
X135900000Y-85000000D01*
X125000000Y-87600000D02*
X126000000Y-87600000D01*
X126000000Y-85900000D02*
X125000000Y-85900000D01*
X129300000Y-81950000D02*
X129300000Y-80550000D01*
X129300000Y-80550000D02*
X126500000Y-80550000D01*
X129300000Y-81950000D02*
X126500000Y-81950000D01*
X155610000Y-86200000D02*
X157940000Y-86200000D01*
X155610000Y-101190000D02*
X157730000Y-101190000D01*
X155610000Y-86200000D02*
X155610000Y-101190000D01*
X169700000Y-86200000D02*
X169700000Y-101190000D01*
X160900000Y-86200000D02*
X169700000Y-86200000D01*
X161100000Y-101190000D02*
X169700000Y-101190000D01*
X151140000Y-92030000D02*
X149940000Y-92030000D01*
X149940000Y-90270000D02*
X151140000Y-90270000D01*
X151140000Y-94570000D02*
X149940000Y-94570000D01*
X149940000Y-92810000D02*
X151140000Y-92810000D01*
X120880000Y-82150000D02*
X120880000Y-83350000D01*
X119120000Y-83350000D02*
X119120000Y-82150000D01*
D16*
X123675000Y-90175000D02*
X123675000Y-90200000D01*
X127825000Y-90175000D02*
X127825000Y-90280000D01*
X127825000Y-100325000D02*
X127825000Y-100220000D01*
X123675000Y-100325000D02*
X123675000Y-100220000D01*
X123675000Y-90175000D02*
X127825000Y-90175000D01*
X123675000Y-100325000D02*
X127825000Y-100325000D01*
X123675000Y-90200000D02*
X122300000Y-90200000D01*
D14*
X150390000Y-82350000D02*
X150390000Y-84150000D01*
X153610000Y-84150000D02*
X153610000Y-81700000D01*
D16*
X141735000Y-92335000D02*
X141310000Y-92335000D01*
X141735000Y-97585000D02*
X141225000Y-97585000D01*
X136485000Y-97585000D02*
X136995000Y-97585000D01*
X136485000Y-92335000D02*
X136995000Y-92335000D01*
X141735000Y-92335000D02*
X141735000Y-92845000D01*
X136485000Y-92335000D02*
X136485000Y-92845000D01*
X136485000Y-97585000D02*
X136485000Y-97075000D01*
X141735000Y-97585000D02*
X141735000Y-97075000D01*
X141310000Y-92335000D02*
X141310000Y-91110000D01*
D14*
X141150000Y-82150000D02*
X145400000Y-82150000D01*
X141150000Y-84250000D02*
X145400000Y-84250000D01*
X141150000Y-82150000D02*
X141150000Y-84250000D01*
D16*
X145723809Y-108326190D02*
X145723809Y-108802381D01*
X145390476Y-107802381D02*
X145723809Y-108326190D01*
X146057143Y-107802381D01*
X146914286Y-108802381D02*
X146342857Y-108802381D01*
X146628571Y-108802381D02*
X146628571Y-107802381D01*
X146533333Y-107945238D01*
X146438095Y-108040476D01*
X146342857Y-108088095D01*
D12*
D16*
X146083334Y-98607143D02*
X146035715Y-98654762D01*
X145892858Y-98702381D01*
X145797620Y-98702381D01*
X145654762Y-98654762D01*
X145559524Y-98559524D01*
X145511905Y-98464286D01*
X145464286Y-98273810D01*
X145464286Y-98130952D01*
X145511905Y-97940476D01*
X145559524Y-97845238D01*
X145654762Y-97750000D01*
X145797620Y-97702381D01*
X145892858Y-97702381D01*
X146035715Y-97750000D01*
X146083334Y-97797619D01*
X147035715Y-98702381D02*
X146464286Y-98702381D01*
X146750000Y-98702381D02*
X146750000Y-97702381D01*
X146654762Y-97845238D01*
X146559524Y-97940476D01*
X146464286Y-97988095D01*
X151633334Y-98407143D02*
X151585715Y-98454762D01*
X151442858Y-98502381D01*
X151347620Y-98502381D01*
X151204762Y-98454762D01*
X151109524Y-98359524D01*
X151061905Y-98264286D01*
X151014286Y-98073810D01*
X151014286Y-97930952D01*
X151061905Y-97740476D01*
X151109524Y-97645238D01*
X151204762Y-97550000D01*
X151347620Y-97502381D01*
X151442858Y-97502381D01*
X151585715Y-97550000D01*
X151633334Y-97597619D01*
X152014286Y-97597619D02*
X152061905Y-97550000D01*
X152157143Y-97502381D01*
X152395239Y-97502381D01*
X152490477Y-97550000D01*
X152538096Y-97597619D01*
X152585715Y-97692857D01*
X152585715Y-97788095D01*
X152538096Y-97930952D01*
X151966667Y-98502381D01*
X152585715Y-98502381D01*
X138233334Y-103307143D02*
X138185715Y-103354762D01*
X138042858Y-103402381D01*
X137947620Y-103402381D01*
X137804762Y-103354762D01*
X137709524Y-103259524D01*
X137661905Y-103164286D01*
X137614286Y-102973810D01*
X137614286Y-102830952D01*
X137661905Y-102640476D01*
X137709524Y-102545238D01*
X137804762Y-102450000D01*
X137947620Y-102402381D01*
X138042858Y-102402381D01*
X138185715Y-102450000D01*
X138233334Y-102497619D01*
X138566667Y-102402381D02*
X139185715Y-102402381D01*
X138852381Y-102783333D01*
X138995239Y-102783333D01*
X139090477Y-102830952D01*
X139138096Y-102878571D01*
X139185715Y-102973810D01*
X139185715Y-103211905D01*
X139138096Y-103307143D01*
X139090477Y-103354762D01*
X138995239Y-103402381D01*
X138709524Y-103402381D01*
X138614286Y-103354762D01*
X138566667Y-103307143D01*
X144333334Y-86607143D02*
X144285715Y-86654762D01*
X144142858Y-86702381D01*
X144047620Y-86702381D01*
X143904762Y-86654762D01*
X143809524Y-86559524D01*
X143761905Y-86464286D01*
X143714286Y-86273810D01*
X143714286Y-86130952D01*
X143761905Y-85940476D01*
X143809524Y-85845238D01*
X143904762Y-85750000D01*
X144047620Y-85702381D01*
X144142858Y-85702381D01*
X144285715Y-85750000D01*
X144333334Y-85797619D01*
X145190477Y-86035714D02*
X145190477Y-86702381D01*
X144952381Y-85654762D02*
X144714286Y-86369048D01*
X145333334Y-86369048D01*
X150233334Y-86607143D02*
X150185715Y-86654762D01*
X150042858Y-86702381D01*
X149947620Y-86702381D01*
X149804762Y-86654762D01*
X149709524Y-86559524D01*
X149661905Y-86464286D01*
X149614286Y-86273810D01*
X149614286Y-86130952D01*
X149661905Y-85940476D01*
X149709524Y-85845238D01*
X149804762Y-85750000D01*
X149947620Y-85702381D01*
X150042858Y-85702381D01*
X150185715Y-85750000D01*
X150233334Y-85797619D01*
X151138096Y-85702381D02*
X150661905Y-85702381D01*
X150614286Y-86178571D01*
X150661905Y-86130952D01*
X150757143Y-86083333D01*
X150995239Y-86083333D01*
X151090477Y-86130952D01*
X151138096Y-86178571D01*
X151185715Y-86273810D01*
X151185715Y-86511905D01*
X151138096Y-86607143D01*
X151090477Y-86654762D01*
X150995239Y-86702381D01*
X150757143Y-86702381D01*
X150661905Y-86654762D01*
X150614286Y-86607143D01*
X138857143Y-84666666D02*
X138904762Y-84714285D01*
X138952381Y-84857142D01*
X138952381Y-84952380D01*
X138904762Y-85095238D01*
X138809524Y-85190476D01*
X138714286Y-85238095D01*
X138523810Y-85285714D01*
X138380952Y-85285714D01*
X138190476Y-85238095D01*
X138095238Y-85190476D01*
X138000000Y-85095238D01*
X137952381Y-84952380D01*
X137952381Y-84857142D01*
X138000000Y-84714285D01*
X138047619Y-84666666D01*
X137952381Y-83809523D02*
X137952381Y-84000000D01*
X138000000Y-84095238D01*
X138047619Y-84142857D01*
X138190476Y-84238095D01*
X138380952Y-84285714D01*
X138761905Y-84285714D01*
X138857143Y-84238095D01*
X138904762Y-84190476D01*
X138952381Y-84095238D01*
X138952381Y-83904761D01*
X138904762Y-83809523D01*
X138857143Y-83761904D01*
X138761905Y-83714285D01*
X138523810Y-83714285D01*
X138428571Y-83761904D01*
X138380952Y-83809523D01*
X138333333Y-83904761D01*
X138333333Y-84095238D01*
X138380952Y-84190476D01*
X138428571Y-84238095D01*
X138523810Y-84285714D01*
X129333334Y-87107143D02*
X129285715Y-87154762D01*
X129142858Y-87202381D01*
X129047620Y-87202381D01*
X128904762Y-87154762D01*
X128809524Y-87059524D01*
X128761905Y-86964286D01*
X128714286Y-86773810D01*
X128714286Y-86630952D01*
X128761905Y-86440476D01*
X128809524Y-86345238D01*
X128904762Y-86250000D01*
X129047620Y-86202381D01*
X129142858Y-86202381D01*
X129285715Y-86250000D01*
X129333334Y-86297619D01*
X129904762Y-86630952D02*
X129809524Y-86583333D01*
X129761905Y-86535714D01*
X129714286Y-86440476D01*
X129714286Y-86392857D01*
X129761905Y-86297619D01*
X129809524Y-86250000D01*
X129904762Y-86202381D01*
X130095239Y-86202381D01*
X130190477Y-86250000D01*
X130238096Y-86297619D01*
X130285715Y-86392857D01*
X130285715Y-86440476D01*
X130238096Y-86535714D01*
X130190477Y-86583333D01*
X130095239Y-86630952D01*
X129904762Y-86630952D01*
X129809524Y-86678571D01*
X129761905Y-86726190D01*
X129714286Y-86821429D01*
X129714286Y-87011905D01*
X129761905Y-87107143D01*
X129809524Y-87154762D01*
X129904762Y-87202381D01*
X130095239Y-87202381D01*
X130190477Y-87154762D01*
X130238096Y-87107143D01*
X130285715Y-87011905D01*
X130285715Y-86821429D01*
X130238096Y-86726190D01*
X130190477Y-86678571D01*
X130095239Y-86630952D01*
X130461905Y-81452381D02*
X130461905Y-80452381D01*
X130700000Y-80452381D01*
X130842858Y-80500000D01*
X130938096Y-80595238D01*
X130985715Y-80690476D01*
X131033334Y-80880952D01*
X131033334Y-81023810D01*
X130985715Y-81214286D01*
X130938096Y-81309524D01*
X130842858Y-81404762D01*
X130700000Y-81452381D01*
X130461905Y-81452381D01*
X131985715Y-81452381D02*
X131414286Y-81452381D01*
X131700000Y-81452381D02*
X131700000Y-80452381D01*
X131604762Y-80595238D01*
X131509524Y-80690476D01*
X131414286Y-80738095D01*
X154083334Y-91702381D02*
X153750000Y-91226190D01*
X153511905Y-91702381D02*
X153511905Y-90702381D01*
X153892858Y-90702381D01*
X153988096Y-90750000D01*
X154035715Y-90797619D01*
X154083334Y-90892857D01*
X154083334Y-91035714D01*
X154035715Y-91130952D01*
X153988096Y-91178571D01*
X153892858Y-91226190D01*
X153511905Y-91226190D01*
X155035715Y-91702381D02*
X154464286Y-91702381D01*
X154750000Y-91702381D02*
X154750000Y-90702381D01*
X154654762Y-90845238D01*
X154559524Y-90940476D01*
X154464286Y-90988095D01*
X154083334Y-93952381D02*
X153750000Y-93476190D01*
X153511905Y-93952381D02*
X153511905Y-92952381D01*
X153892858Y-92952381D01*
X153988096Y-93000000D01*
X154035715Y-93047619D01*
X154083334Y-93142857D01*
X154083334Y-93285714D01*
X154035715Y-93380952D01*
X153988096Y-93428571D01*
X153892858Y-93476190D01*
X153511905Y-93476190D01*
X154464286Y-93047619D02*
X154511905Y-93000000D01*
X154607143Y-92952381D01*
X154845239Y-92952381D01*
X154940477Y-93000000D01*
X154988096Y-93047619D01*
X155035715Y-93142857D01*
X155035715Y-93238095D01*
X154988096Y-93380952D01*
X154416667Y-93952381D01*
X155035715Y-93952381D01*
X117583334Y-81702381D02*
X117250000Y-81226190D01*
X117011905Y-81702381D02*
X117011905Y-80702381D01*
X117392858Y-80702381D01*
X117488096Y-80750000D01*
X117535715Y-80797619D01*
X117583334Y-80892857D01*
X117583334Y-81035714D01*
X117535715Y-81130952D01*
X117488096Y-81178571D01*
X117392858Y-81226190D01*
X117011905Y-81226190D01*
X117916667Y-80702381D02*
X118535715Y-80702381D01*
X118202381Y-81083333D01*
X118345239Y-81083333D01*
X118440477Y-81130952D01*
X118488096Y-81178571D01*
X118535715Y-81273810D01*
X118535715Y-81511905D01*
X118488096Y-81607143D01*
X118440477Y-81654762D01*
X118345239Y-81702381D01*
X118059524Y-81702381D01*
X117964286Y-81654762D01*
X117916667Y-81607143D01*
X122238095Y-88452381D02*
X122238095Y-89261905D01*
X122285714Y-89357143D01*
X122333333Y-89404762D01*
X122428571Y-89452381D01*
X122619048Y-89452381D01*
X122714286Y-89404762D01*
X122761905Y-89357143D01*
X122809524Y-89261905D01*
X122809524Y-88452381D01*
X123809524Y-89452381D02*
X123238095Y-89452381D01*
X123523809Y-89452381D02*
X123523809Y-88452381D01*
X123428571Y-88595238D01*
X123333333Y-88690476D01*
X123238095Y-88738095D01*
X154178095Y-82002381D02*
X154178095Y-82811905D01*
X154225714Y-82907143D01*
X154273333Y-82954762D01*
X154368571Y-83002381D01*
X154559048Y-83002381D01*
X154654286Y-82954762D01*
X154701905Y-82907143D01*
X154749524Y-82811905D01*
X154749524Y-82002381D01*
X155178095Y-82097619D02*
X155225714Y-82050000D01*
X155320952Y-82002381D01*
X155559048Y-82002381D01*
X155654286Y-82050000D01*
X155701905Y-82097619D01*
X155749524Y-82192857D01*
X155749524Y-82288095D01*
X155701905Y-82430952D01*
X155130476Y-83002381D01*
X155749524Y-83002381D01*
X143412381Y-95721905D02*
X144221905Y-95721905D01*
X144317143Y-95674286D01*
X144364762Y-95626667D01*
X144412381Y-95531429D01*
X144412381Y-95340952D01*
X144364762Y-95245714D01*
X144317143Y-95198095D01*
X144221905Y-95150476D01*
X143412381Y-95150476D01*
X143412381Y-94769524D02*
X143412381Y-94150476D01*
X143793333Y-94483810D01*
X143793333Y-94340952D01*
X143840952Y-94245714D01*
X143888571Y-94198095D01*
X143983810Y-94150476D01*
X144221905Y-94150476D01*
X144317143Y-94198095D01*
X144364762Y-94245714D01*
X144412381Y-94340952D01*
X144412381Y-94626667D01*
X144364762Y-94721905D01*
X144317143Y-94769524D01*
X143633334Y-81007143D02*
X143585715Y-81054762D01*
X143442858Y-81102381D01*
X143347620Y-81102381D01*
X143204762Y-81054762D01*
X143109524Y-80959524D01*
X143061905Y-80864286D01*
X143014286Y-80673810D01*
X143014286Y-80530952D01*
X143061905Y-80340476D01*
X143109524Y-80245238D01*
X143204762Y-80150000D01*
X143347620Y-80102381D01*
X143442858Y-80102381D01*
X143585715Y-80150000D01*
X143633334Y-80197619D01*
X143966667Y-80102381D02*
X144633334Y-80102381D01*
X144204762Y-81102381D01*
M02*
