G04 #@! TF.FileFunction,Copper,L2,Bot,Signal*
%FSLAX46Y46*%
G04 Gerber Fmt 4.6, Leading zero omitted, Abs format (unit mm)*
G04 Created by KiCad (PCBNEW 4.0.6) date 06/06/17 10:00:33*
%MOMM*%
%LPD*%
G01*
G04 APERTURE LIST*
%ADD10C,0.100000*%
%ADD11R,1.524000X1.524000*%
%ADD12C,1.524000*%
%ADD13C,1.500000*%
%ADD14C,3.000000*%
%ADD15C,0.800000*%
%ADD16C,0.600000*%
%ADD17C,0.400000*%
%ADD18C,0.500000*%
%ADD19C,0.200000*%
%ADD20C,0.254000*%
G04 APERTURE END LIST*
D10*
D11*
X118525400Y-100600000D03*
D12*
X118525400Y-98060000D03*
X118525400Y-95520000D03*
X118525400Y-92980000D03*
X118525400Y-90440000D03*
X118525400Y-87900000D03*
D13*
X156750000Y-90140000D03*
X156750000Y-92680000D03*
X156750000Y-94710000D03*
X156750000Y-97250000D03*
D14*
X159420000Y-87090000D03*
X159420000Y-100810000D03*
D15*
X131750000Y-86250000D03*
X131750000Y-90000000D03*
X154000000Y-80500000D03*
X155000000Y-85750000D03*
X142250000Y-85500000D03*
X132250000Y-83500000D03*
X125500000Y-83500000D03*
D16*
X146250000Y-91250000D03*
X140000000Y-96500000D03*
X138918221Y-100047447D03*
X146750000Y-95250000D03*
X125500000Y-92500000D03*
X132250000Y-94500000D03*
X125750000Y-95250000D03*
X131000000Y-95750000D03*
X133750000Y-98250000D03*
X125500000Y-98250000D03*
D17*
X131750000Y-86250000D02*
X131750000Y-90000000D01*
D18*
X161750000Y-97250000D02*
X156750000Y-97250000D01*
X163250000Y-95750000D02*
X161750000Y-97250000D01*
X163250000Y-81500000D02*
X163250000Y-95750000D01*
X162250000Y-80500000D02*
X163250000Y-81500000D01*
X154000000Y-80500000D02*
X162250000Y-80500000D01*
X142500000Y-85750000D02*
X155000000Y-85750000D01*
X142250000Y-85500000D02*
X142500000Y-85750000D01*
X125500000Y-83500000D02*
X132250000Y-83500000D01*
D19*
X140000000Y-96500000D02*
X145250000Y-91250000D01*
X145250000Y-91250000D02*
X146250000Y-91250000D01*
X146000000Y-95250000D02*
X141202553Y-100047447D01*
X141202553Y-100047447D02*
X138918221Y-100047447D01*
X146750000Y-95250000D02*
X146000000Y-95250000D01*
X125500000Y-92500000D02*
X127000000Y-94000000D01*
X127000000Y-94000000D02*
X131750000Y-94000000D01*
X131750000Y-94000000D02*
X132250000Y-94500000D01*
X126500000Y-96000000D02*
X125750000Y-95250000D01*
X130750000Y-96000000D02*
X126500000Y-96000000D01*
X131000000Y-95750000D02*
X130750000Y-96000000D01*
X125500000Y-98250000D02*
X133750000Y-98250000D01*
D20*
G36*
X170158000Y-108228000D02*
X111872000Y-108228000D01*
X111872000Y-105691034D01*
X112522614Y-105691034D01*
X112860940Y-106509846D01*
X113486858Y-107136858D01*
X114305079Y-107476613D01*
X115191034Y-107477386D01*
X116009846Y-107139060D01*
X116636858Y-106513142D01*
X116976613Y-105694921D01*
X116976616Y-105691034D01*
X164522614Y-105691034D01*
X164860940Y-106509846D01*
X165486858Y-107136858D01*
X166305079Y-107476613D01*
X167191034Y-107477386D01*
X168009846Y-107139060D01*
X168636858Y-106513142D01*
X168976613Y-105694921D01*
X168977386Y-104808966D01*
X168639060Y-103990154D01*
X168013142Y-103363142D01*
X167194921Y-103023387D01*
X166308966Y-103022614D01*
X165490154Y-103360940D01*
X164863142Y-103986858D01*
X164523387Y-104805079D01*
X164522614Y-105691034D01*
X116976616Y-105691034D01*
X116977386Y-104808966D01*
X116639060Y-103990154D01*
X116013142Y-103363142D01*
X115194921Y-103023387D01*
X114308966Y-103022614D01*
X113490154Y-103360940D01*
X112863142Y-103986858D01*
X112523387Y-104805079D01*
X112522614Y-105691034D01*
X111872000Y-105691034D01*
X111872000Y-99838000D01*
X117124117Y-99838000D01*
X117124117Y-101362000D01*
X117167837Y-101594352D01*
X117305157Y-101807753D01*
X117514683Y-101950917D01*
X117763400Y-102001283D01*
X119287400Y-102001283D01*
X119519752Y-101957563D01*
X119733153Y-101820243D01*
X119876317Y-101610717D01*
X119926683Y-101362000D01*
X119926683Y-101231230D01*
X157292632Y-101231230D01*
X157615766Y-102013274D01*
X158213578Y-102612131D01*
X158995057Y-102936630D01*
X159841230Y-102937368D01*
X160623274Y-102614234D01*
X161222131Y-102016422D01*
X161546630Y-101234943D01*
X161547368Y-100388770D01*
X161224234Y-99606726D01*
X160626422Y-99007869D01*
X159844943Y-98683370D01*
X158998770Y-98682632D01*
X158216726Y-99005766D01*
X157617869Y-99603578D01*
X157293370Y-100385057D01*
X157292632Y-101231230D01*
X119926683Y-101231230D01*
X119926683Y-100231030D01*
X137991060Y-100231030D01*
X138131890Y-100571864D01*
X138392432Y-100832861D01*
X138733020Y-100974286D01*
X139101804Y-100974608D01*
X139442638Y-100833778D01*
X139502073Y-100774447D01*
X141202548Y-100774447D01*
X141202553Y-100774448D01*
X141434605Y-100728289D01*
X141480764Y-100719107D01*
X141716620Y-100561514D01*
X146237289Y-96040844D01*
X146564799Y-96176839D01*
X146933583Y-96177161D01*
X147274417Y-96036331D01*
X147535414Y-95775789D01*
X147676839Y-95435201D01*
X147677161Y-95066417D01*
X147536331Y-94725583D01*
X147275789Y-94464586D01*
X146935201Y-94323161D01*
X146566417Y-94322839D01*
X146225583Y-94463669D01*
X146166148Y-94523000D01*
X146000005Y-94523000D01*
X146000000Y-94522999D01*
X145767948Y-94569158D01*
X145721789Y-94578340D01*
X145485933Y-94735933D01*
X145485931Y-94735936D01*
X140901419Y-99320447D01*
X139502322Y-99320447D01*
X139444010Y-99262033D01*
X139103422Y-99120608D01*
X138734638Y-99120286D01*
X138393804Y-99261116D01*
X138132807Y-99521658D01*
X137991382Y-99862246D01*
X137991060Y-100231030D01*
X119926683Y-100231030D01*
X119926683Y-99838000D01*
X119882963Y-99605648D01*
X119745643Y-99392247D01*
X119536117Y-99249083D01*
X119340068Y-99209382D01*
X119702250Y-98847833D01*
X119874261Y-98433583D01*
X124572839Y-98433583D01*
X124713669Y-98774417D01*
X124974211Y-99035414D01*
X125314799Y-99176839D01*
X125683583Y-99177161D01*
X126024417Y-99036331D01*
X126083852Y-98977000D01*
X133165899Y-98977000D01*
X133224211Y-99035414D01*
X133564799Y-99176839D01*
X133933583Y-99177161D01*
X134274417Y-99036331D01*
X134535414Y-98775789D01*
X134676839Y-98435201D01*
X134677161Y-98066417D01*
X134536331Y-97725583D01*
X134275789Y-97464586D01*
X133935201Y-97323161D01*
X133566417Y-97322839D01*
X133225583Y-97463669D01*
X133166148Y-97523000D01*
X126084101Y-97523000D01*
X126025789Y-97464586D01*
X125685201Y-97323161D01*
X125316417Y-97322839D01*
X124975583Y-97463669D01*
X124714586Y-97724211D01*
X124573161Y-98064799D01*
X124572839Y-98433583D01*
X119874261Y-98433583D01*
X119914158Y-98337501D01*
X119914640Y-97784923D01*
X119703623Y-97274223D01*
X119313233Y-96883150D01*
X119088981Y-96790033D01*
X119311177Y-96698223D01*
X119702250Y-96307833D01*
X119914158Y-95797501D01*
X119914640Y-95244923D01*
X119703623Y-94734223D01*
X119313233Y-94343150D01*
X119088981Y-94250033D01*
X119311177Y-94158223D01*
X119702250Y-93767833D01*
X119914158Y-93257501D01*
X119914640Y-92704923D01*
X119905823Y-92683583D01*
X124572839Y-92683583D01*
X124713669Y-93024417D01*
X124974211Y-93285414D01*
X125314799Y-93426839D01*
X125398779Y-93426912D01*
X126485931Y-94514064D01*
X126485933Y-94514067D01*
X126721789Y-94671660D01*
X127000000Y-94727000D01*
X131340779Y-94727000D01*
X131420962Y-94921058D01*
X131185201Y-94823161D01*
X130816417Y-94822839D01*
X130475583Y-94963669D01*
X130214586Y-95224211D01*
X130194327Y-95273000D01*
X126801134Y-95273000D01*
X126677089Y-95148955D01*
X126677161Y-95066417D01*
X126536331Y-94725583D01*
X126275789Y-94464586D01*
X125935201Y-94323161D01*
X125566417Y-94322839D01*
X125225583Y-94463669D01*
X124964586Y-94724211D01*
X124823161Y-95064799D01*
X124822839Y-95433583D01*
X124963669Y-95774417D01*
X125224211Y-96035414D01*
X125564799Y-96176839D01*
X125648778Y-96176912D01*
X125985933Y-96514067D01*
X126221789Y-96671660D01*
X126500000Y-96727000D01*
X130749995Y-96727000D01*
X130750000Y-96727001D01*
X130968272Y-96683583D01*
X139072839Y-96683583D01*
X139213669Y-97024417D01*
X139474211Y-97285414D01*
X139814799Y-97426839D01*
X140183583Y-97427161D01*
X140524417Y-97286331D01*
X140785414Y-97025789D01*
X140926839Y-96685201D01*
X140926912Y-96601222D01*
X145551133Y-91977000D01*
X145665899Y-91977000D01*
X145724211Y-92035414D01*
X146064799Y-92176839D01*
X146433583Y-92177161D01*
X146774417Y-92036331D01*
X147035414Y-91775789D01*
X147176839Y-91435201D01*
X147177161Y-91066417D01*
X147036331Y-90725583D01*
X146775789Y-90464586D01*
X146435201Y-90323161D01*
X146066417Y-90322839D01*
X145725583Y-90463669D01*
X145666148Y-90523000D01*
X145250000Y-90523000D01*
X144971789Y-90578340D01*
X144735933Y-90735933D01*
X144735931Y-90735936D01*
X139898955Y-95572911D01*
X139816417Y-95572839D01*
X139475583Y-95713669D01*
X139214586Y-95974211D01*
X139073161Y-96314799D01*
X139072839Y-96683583D01*
X130968272Y-96683583D01*
X130982052Y-96680842D01*
X131001356Y-96677002D01*
X131183583Y-96677161D01*
X131524417Y-96536331D01*
X131785414Y-96275789D01*
X131926839Y-95935201D01*
X131927161Y-95566417D01*
X131829038Y-95328942D01*
X132064799Y-95426839D01*
X132433583Y-95427161D01*
X132774417Y-95286331D01*
X133035414Y-95025789D01*
X133176839Y-94685201D01*
X133177161Y-94316417D01*
X133036331Y-93975583D01*
X132775789Y-93714586D01*
X132435201Y-93573161D01*
X132351221Y-93573088D01*
X132264067Y-93485933D01*
X132175626Y-93426839D01*
X132028211Y-93328340D01*
X131982052Y-93319158D01*
X131750000Y-93272999D01*
X131749995Y-93273000D01*
X127301133Y-93273000D01*
X126427089Y-92398955D01*
X126427161Y-92316417D01*
X126286331Y-91975583D01*
X126025789Y-91714586D01*
X125685201Y-91573161D01*
X125316417Y-91572839D01*
X124975583Y-91713669D01*
X124714586Y-91974211D01*
X124573161Y-92314799D01*
X124572839Y-92683583D01*
X119905823Y-92683583D01*
X119703623Y-92194223D01*
X119313233Y-91803150D01*
X119242918Y-91773953D01*
X119271986Y-91761912D01*
X119340111Y-91499370D01*
X118525400Y-90684659D01*
X117710689Y-91499370D01*
X117778814Y-91761912D01*
X117810712Y-91772404D01*
X117739623Y-91801777D01*
X117348550Y-92192167D01*
X117136642Y-92702499D01*
X117136160Y-93255077D01*
X117347177Y-93765777D01*
X117737567Y-94156850D01*
X117961819Y-94249967D01*
X117739623Y-94341777D01*
X117348550Y-94732167D01*
X117136642Y-95242499D01*
X117136160Y-95795077D01*
X117347177Y-96305777D01*
X117737567Y-96696850D01*
X117961819Y-96789967D01*
X117739623Y-96881777D01*
X117348550Y-97272167D01*
X117136642Y-97782499D01*
X117136160Y-98335077D01*
X117347177Y-98845777D01*
X117709605Y-99208839D01*
X117531048Y-99242437D01*
X117317647Y-99379757D01*
X117174483Y-99589283D01*
X117124117Y-99838000D01*
X111872000Y-99838000D01*
X111872000Y-90256118D01*
X117018407Y-90256118D01*
X117062751Y-90846817D01*
X117203488Y-91186586D01*
X117466030Y-91254711D01*
X118280741Y-90440000D01*
X118770059Y-90440000D01*
X119584770Y-91254711D01*
X119847312Y-91186586D01*
X120032393Y-90623882D01*
X119988049Y-90033183D01*
X119847312Y-89693414D01*
X119584770Y-89625289D01*
X118770059Y-90440000D01*
X118280741Y-90440000D01*
X117466030Y-89625289D01*
X117203488Y-89693414D01*
X117018407Y-90256118D01*
X111872000Y-90256118D01*
X111872000Y-88175077D01*
X117136160Y-88175077D01*
X117347177Y-88685777D01*
X117737567Y-89076850D01*
X117807882Y-89106047D01*
X117778814Y-89118088D01*
X117710689Y-89380630D01*
X118525400Y-90195341D01*
X119340111Y-89380630D01*
X119271986Y-89118088D01*
X119240088Y-89107596D01*
X119311177Y-89078223D01*
X119702250Y-88687833D01*
X119914158Y-88177501D01*
X119914640Y-87624923D01*
X119703623Y-87114223D01*
X119313233Y-86723150D01*
X118802901Y-86511242D01*
X118250323Y-86510760D01*
X117739623Y-86721777D01*
X117348550Y-87112167D01*
X117136642Y-87622499D01*
X117136160Y-88175077D01*
X111872000Y-88175077D01*
X111872000Y-86453387D01*
X130722822Y-86453387D01*
X130878844Y-86830989D01*
X130923000Y-86875222D01*
X130923000Y-89374427D01*
X130879860Y-89417492D01*
X130723179Y-89794821D01*
X130722822Y-90203387D01*
X130878844Y-90580989D01*
X131167492Y-90870140D01*
X131544821Y-91026821D01*
X131953387Y-91027178D01*
X132330989Y-90871156D01*
X132620140Y-90582508D01*
X132776821Y-90205179D01*
X132777036Y-89958994D01*
X155254982Y-89958994D01*
X155299515Y-90544891D01*
X155438051Y-90879347D01*
X155699355Y-90945986D01*
X156505341Y-90140000D01*
X156994659Y-90140000D01*
X157800645Y-90945986D01*
X158061949Y-90879347D01*
X158245018Y-90321006D01*
X158200485Y-89735109D01*
X158061949Y-89400653D01*
X157800645Y-89334014D01*
X156994659Y-90140000D01*
X156505341Y-90140000D01*
X155699355Y-89334014D01*
X155438051Y-89400653D01*
X155254982Y-89958994D01*
X132777036Y-89958994D01*
X132777178Y-89796613D01*
X132621156Y-89419011D01*
X132577000Y-89374778D01*
X132577000Y-89089355D01*
X155944014Y-89089355D01*
X156750000Y-89895341D01*
X157555986Y-89089355D01*
X157489347Y-88828051D01*
X156931006Y-88644982D01*
X156345109Y-88689515D01*
X156010653Y-88828051D01*
X155944014Y-89089355D01*
X132577000Y-89089355D01*
X132577000Y-87511230D01*
X157292632Y-87511230D01*
X157615766Y-88293274D01*
X158213578Y-88892131D01*
X158995057Y-89216630D01*
X159841230Y-89217368D01*
X160623274Y-88894234D01*
X161222131Y-88296422D01*
X161546630Y-87514943D01*
X161547368Y-86668770D01*
X161224234Y-85886726D01*
X160626422Y-85287869D01*
X159844943Y-84963370D01*
X158998770Y-84962632D01*
X158216726Y-85285766D01*
X157617869Y-85883578D01*
X157293370Y-86665057D01*
X157292632Y-87511230D01*
X132577000Y-87511230D01*
X132577000Y-86875573D01*
X132620140Y-86832508D01*
X132776821Y-86455179D01*
X132777178Y-86046613D01*
X132635360Y-85703387D01*
X141222822Y-85703387D01*
X141378844Y-86080989D01*
X141667492Y-86370140D01*
X142044821Y-86526821D01*
X142114459Y-86526882D01*
X142164386Y-86560242D01*
X142500000Y-86627000D01*
X154434013Y-86627000D01*
X154794821Y-86776821D01*
X155203387Y-86777178D01*
X155580989Y-86621156D01*
X155870140Y-86332508D01*
X156026821Y-85955179D01*
X156027178Y-85546613D01*
X155871156Y-85169011D01*
X155582508Y-84879860D01*
X155205179Y-84723179D01*
X154796613Y-84722822D01*
X154433155Y-84873000D01*
X143075225Y-84873000D01*
X142832508Y-84629860D01*
X142455179Y-84473179D01*
X142046613Y-84472822D01*
X141669011Y-84628844D01*
X141379860Y-84917492D01*
X141223179Y-85294821D01*
X141222822Y-85703387D01*
X132635360Y-85703387D01*
X132621156Y-85669011D01*
X132332508Y-85379860D01*
X131955179Y-85223179D01*
X131546613Y-85222822D01*
X131169011Y-85378844D01*
X130879860Y-85667492D01*
X130723179Y-86044821D01*
X130722822Y-86453387D01*
X111872000Y-86453387D01*
X111872000Y-83691034D01*
X112522614Y-83691034D01*
X112860940Y-84509846D01*
X113486858Y-85136858D01*
X114305079Y-85476613D01*
X115191034Y-85477386D01*
X116009846Y-85139060D01*
X116636858Y-84513142D01*
X116973097Y-83703387D01*
X124472822Y-83703387D01*
X124628844Y-84080989D01*
X124917492Y-84370140D01*
X125294821Y-84526821D01*
X125703387Y-84527178D01*
X126066845Y-84377000D01*
X131684013Y-84377000D01*
X132044821Y-84526821D01*
X132453387Y-84527178D01*
X132830989Y-84371156D01*
X133120140Y-84082508D01*
X133276821Y-83705179D01*
X133277178Y-83296613D01*
X133121156Y-82919011D01*
X132832508Y-82629860D01*
X132455179Y-82473179D01*
X132046613Y-82472822D01*
X131683155Y-82623000D01*
X126065987Y-82623000D01*
X125705179Y-82473179D01*
X125296613Y-82472822D01*
X124919011Y-82628844D01*
X124629860Y-82917492D01*
X124473179Y-83294821D01*
X124472822Y-83703387D01*
X116973097Y-83703387D01*
X116976613Y-83694921D01*
X116977386Y-82808966D01*
X116639060Y-81990154D01*
X116013142Y-81363142D01*
X115194921Y-81023387D01*
X114308966Y-81022614D01*
X113490154Y-81360940D01*
X112863142Y-81986858D01*
X112523387Y-82805079D01*
X112522614Y-83691034D01*
X111872000Y-83691034D01*
X111872000Y-80703387D01*
X152972822Y-80703387D01*
X153128844Y-81080989D01*
X153417492Y-81370140D01*
X153794821Y-81526821D01*
X154203387Y-81527178D01*
X154566845Y-81377000D01*
X161886734Y-81377000D01*
X162373000Y-81863265D01*
X162373000Y-95386735D01*
X161386734Y-96373000D01*
X157820204Y-96373000D01*
X157531026Y-96083317D01*
X157282224Y-95980005D01*
X157528989Y-95878044D01*
X157916683Y-95491026D01*
X158126760Y-94985104D01*
X158127238Y-94437299D01*
X157918044Y-93931011D01*
X157682373Y-93694928D01*
X157916683Y-93461026D01*
X158126760Y-92955104D01*
X158127238Y-92407299D01*
X157918044Y-91901011D01*
X157531026Y-91513317D01*
X157436226Y-91473953D01*
X157489347Y-91451949D01*
X157555986Y-91190645D01*
X156750000Y-90384659D01*
X155944014Y-91190645D01*
X156010653Y-91451949D01*
X156069523Y-91471251D01*
X155971011Y-91511956D01*
X155583317Y-91898974D01*
X155373240Y-92404896D01*
X155372762Y-92952701D01*
X155581956Y-93458989D01*
X155817627Y-93695072D01*
X155583317Y-93928974D01*
X155373240Y-94434896D01*
X155372762Y-94982701D01*
X155581956Y-95488989D01*
X155968974Y-95876683D01*
X156217776Y-95979995D01*
X155971011Y-96081956D01*
X155583317Y-96468974D01*
X155373240Y-96974896D01*
X155372762Y-97522701D01*
X155581956Y-98028989D01*
X155968974Y-98416683D01*
X156474896Y-98626760D01*
X157022701Y-98627238D01*
X157528989Y-98418044D01*
X157820541Y-98127000D01*
X161750000Y-98127000D01*
X162085613Y-98060242D01*
X162370133Y-97870133D01*
X163870130Y-96370135D01*
X163870133Y-96370133D01*
X163999287Y-96176839D01*
X164060242Y-96085614D01*
X164127000Y-95750000D01*
X164127000Y-82691034D01*
X164522614Y-82691034D01*
X164860940Y-83509846D01*
X165486858Y-84136858D01*
X166305079Y-84476613D01*
X167191034Y-84477386D01*
X168009846Y-84139060D01*
X168636858Y-83513142D01*
X168976613Y-82694921D01*
X168977386Y-81808966D01*
X168639060Y-80990154D01*
X168013142Y-80363142D01*
X167194921Y-80023387D01*
X166308966Y-80022614D01*
X165490154Y-80360940D01*
X164863142Y-80986858D01*
X164523387Y-81805079D01*
X164522614Y-82691034D01*
X164127000Y-82691034D01*
X164127000Y-81500005D01*
X164127001Y-81500000D01*
X164060242Y-81164387D01*
X164030673Y-81120133D01*
X163870133Y-80879867D01*
X163870130Y-80879865D01*
X162870133Y-79879867D01*
X162585613Y-79689758D01*
X162250000Y-79623000D01*
X154565987Y-79623000D01*
X154205179Y-79473179D01*
X153796613Y-79472822D01*
X153419011Y-79628844D01*
X153129860Y-79917492D01*
X152973179Y-80294821D01*
X152972822Y-80703387D01*
X111872000Y-80703387D01*
X111872000Y-79152000D01*
X170158000Y-79152000D01*
X170158000Y-108228000D01*
X170158000Y-108228000D01*
G37*
X170158000Y-108228000D02*
X111872000Y-108228000D01*
X111872000Y-105691034D01*
X112522614Y-105691034D01*
X112860940Y-106509846D01*
X113486858Y-107136858D01*
X114305079Y-107476613D01*
X115191034Y-107477386D01*
X116009846Y-107139060D01*
X116636858Y-106513142D01*
X116976613Y-105694921D01*
X116976616Y-105691034D01*
X164522614Y-105691034D01*
X164860940Y-106509846D01*
X165486858Y-107136858D01*
X166305079Y-107476613D01*
X167191034Y-107477386D01*
X168009846Y-107139060D01*
X168636858Y-106513142D01*
X168976613Y-105694921D01*
X168977386Y-104808966D01*
X168639060Y-103990154D01*
X168013142Y-103363142D01*
X167194921Y-103023387D01*
X166308966Y-103022614D01*
X165490154Y-103360940D01*
X164863142Y-103986858D01*
X164523387Y-104805079D01*
X164522614Y-105691034D01*
X116976616Y-105691034D01*
X116977386Y-104808966D01*
X116639060Y-103990154D01*
X116013142Y-103363142D01*
X115194921Y-103023387D01*
X114308966Y-103022614D01*
X113490154Y-103360940D01*
X112863142Y-103986858D01*
X112523387Y-104805079D01*
X112522614Y-105691034D01*
X111872000Y-105691034D01*
X111872000Y-99838000D01*
X117124117Y-99838000D01*
X117124117Y-101362000D01*
X117167837Y-101594352D01*
X117305157Y-101807753D01*
X117514683Y-101950917D01*
X117763400Y-102001283D01*
X119287400Y-102001283D01*
X119519752Y-101957563D01*
X119733153Y-101820243D01*
X119876317Y-101610717D01*
X119926683Y-101362000D01*
X119926683Y-101231230D01*
X157292632Y-101231230D01*
X157615766Y-102013274D01*
X158213578Y-102612131D01*
X158995057Y-102936630D01*
X159841230Y-102937368D01*
X160623274Y-102614234D01*
X161222131Y-102016422D01*
X161546630Y-101234943D01*
X161547368Y-100388770D01*
X161224234Y-99606726D01*
X160626422Y-99007869D01*
X159844943Y-98683370D01*
X158998770Y-98682632D01*
X158216726Y-99005766D01*
X157617869Y-99603578D01*
X157293370Y-100385057D01*
X157292632Y-101231230D01*
X119926683Y-101231230D01*
X119926683Y-100231030D01*
X137991060Y-100231030D01*
X138131890Y-100571864D01*
X138392432Y-100832861D01*
X138733020Y-100974286D01*
X139101804Y-100974608D01*
X139442638Y-100833778D01*
X139502073Y-100774447D01*
X141202548Y-100774447D01*
X141202553Y-100774448D01*
X141434605Y-100728289D01*
X141480764Y-100719107D01*
X141716620Y-100561514D01*
X146237289Y-96040844D01*
X146564799Y-96176839D01*
X146933583Y-96177161D01*
X147274417Y-96036331D01*
X147535414Y-95775789D01*
X147676839Y-95435201D01*
X147677161Y-95066417D01*
X147536331Y-94725583D01*
X147275789Y-94464586D01*
X146935201Y-94323161D01*
X146566417Y-94322839D01*
X146225583Y-94463669D01*
X146166148Y-94523000D01*
X146000005Y-94523000D01*
X146000000Y-94522999D01*
X145767948Y-94569158D01*
X145721789Y-94578340D01*
X145485933Y-94735933D01*
X145485931Y-94735936D01*
X140901419Y-99320447D01*
X139502322Y-99320447D01*
X139444010Y-99262033D01*
X139103422Y-99120608D01*
X138734638Y-99120286D01*
X138393804Y-99261116D01*
X138132807Y-99521658D01*
X137991382Y-99862246D01*
X137991060Y-100231030D01*
X119926683Y-100231030D01*
X119926683Y-99838000D01*
X119882963Y-99605648D01*
X119745643Y-99392247D01*
X119536117Y-99249083D01*
X119340068Y-99209382D01*
X119702250Y-98847833D01*
X119874261Y-98433583D01*
X124572839Y-98433583D01*
X124713669Y-98774417D01*
X124974211Y-99035414D01*
X125314799Y-99176839D01*
X125683583Y-99177161D01*
X126024417Y-99036331D01*
X126083852Y-98977000D01*
X133165899Y-98977000D01*
X133224211Y-99035414D01*
X133564799Y-99176839D01*
X133933583Y-99177161D01*
X134274417Y-99036331D01*
X134535414Y-98775789D01*
X134676839Y-98435201D01*
X134677161Y-98066417D01*
X134536331Y-97725583D01*
X134275789Y-97464586D01*
X133935201Y-97323161D01*
X133566417Y-97322839D01*
X133225583Y-97463669D01*
X133166148Y-97523000D01*
X126084101Y-97523000D01*
X126025789Y-97464586D01*
X125685201Y-97323161D01*
X125316417Y-97322839D01*
X124975583Y-97463669D01*
X124714586Y-97724211D01*
X124573161Y-98064799D01*
X124572839Y-98433583D01*
X119874261Y-98433583D01*
X119914158Y-98337501D01*
X119914640Y-97784923D01*
X119703623Y-97274223D01*
X119313233Y-96883150D01*
X119088981Y-96790033D01*
X119311177Y-96698223D01*
X119702250Y-96307833D01*
X119914158Y-95797501D01*
X119914640Y-95244923D01*
X119703623Y-94734223D01*
X119313233Y-94343150D01*
X119088981Y-94250033D01*
X119311177Y-94158223D01*
X119702250Y-93767833D01*
X119914158Y-93257501D01*
X119914640Y-92704923D01*
X119905823Y-92683583D01*
X124572839Y-92683583D01*
X124713669Y-93024417D01*
X124974211Y-93285414D01*
X125314799Y-93426839D01*
X125398779Y-93426912D01*
X126485931Y-94514064D01*
X126485933Y-94514067D01*
X126721789Y-94671660D01*
X127000000Y-94727000D01*
X131340779Y-94727000D01*
X131420962Y-94921058D01*
X131185201Y-94823161D01*
X130816417Y-94822839D01*
X130475583Y-94963669D01*
X130214586Y-95224211D01*
X130194327Y-95273000D01*
X126801134Y-95273000D01*
X126677089Y-95148955D01*
X126677161Y-95066417D01*
X126536331Y-94725583D01*
X126275789Y-94464586D01*
X125935201Y-94323161D01*
X125566417Y-94322839D01*
X125225583Y-94463669D01*
X124964586Y-94724211D01*
X124823161Y-95064799D01*
X124822839Y-95433583D01*
X124963669Y-95774417D01*
X125224211Y-96035414D01*
X125564799Y-96176839D01*
X125648778Y-96176912D01*
X125985933Y-96514067D01*
X126221789Y-96671660D01*
X126500000Y-96727000D01*
X130749995Y-96727000D01*
X130750000Y-96727001D01*
X130968272Y-96683583D01*
X139072839Y-96683583D01*
X139213669Y-97024417D01*
X139474211Y-97285414D01*
X139814799Y-97426839D01*
X140183583Y-97427161D01*
X140524417Y-97286331D01*
X140785414Y-97025789D01*
X140926839Y-96685201D01*
X140926912Y-96601222D01*
X145551133Y-91977000D01*
X145665899Y-91977000D01*
X145724211Y-92035414D01*
X146064799Y-92176839D01*
X146433583Y-92177161D01*
X146774417Y-92036331D01*
X147035414Y-91775789D01*
X147176839Y-91435201D01*
X147177161Y-91066417D01*
X147036331Y-90725583D01*
X146775789Y-90464586D01*
X146435201Y-90323161D01*
X146066417Y-90322839D01*
X145725583Y-90463669D01*
X145666148Y-90523000D01*
X145250000Y-90523000D01*
X144971789Y-90578340D01*
X144735933Y-90735933D01*
X144735931Y-90735936D01*
X139898955Y-95572911D01*
X139816417Y-95572839D01*
X139475583Y-95713669D01*
X139214586Y-95974211D01*
X139073161Y-96314799D01*
X139072839Y-96683583D01*
X130968272Y-96683583D01*
X130982052Y-96680842D01*
X131001356Y-96677002D01*
X131183583Y-96677161D01*
X131524417Y-96536331D01*
X131785414Y-96275789D01*
X131926839Y-95935201D01*
X131927161Y-95566417D01*
X131829038Y-95328942D01*
X132064799Y-95426839D01*
X132433583Y-95427161D01*
X132774417Y-95286331D01*
X133035414Y-95025789D01*
X133176839Y-94685201D01*
X133177161Y-94316417D01*
X133036331Y-93975583D01*
X132775789Y-93714586D01*
X132435201Y-93573161D01*
X132351221Y-93573088D01*
X132264067Y-93485933D01*
X132175626Y-93426839D01*
X132028211Y-93328340D01*
X131982052Y-93319158D01*
X131750000Y-93272999D01*
X131749995Y-93273000D01*
X127301133Y-93273000D01*
X126427089Y-92398955D01*
X126427161Y-92316417D01*
X126286331Y-91975583D01*
X126025789Y-91714586D01*
X125685201Y-91573161D01*
X125316417Y-91572839D01*
X124975583Y-91713669D01*
X124714586Y-91974211D01*
X124573161Y-92314799D01*
X124572839Y-92683583D01*
X119905823Y-92683583D01*
X119703623Y-92194223D01*
X119313233Y-91803150D01*
X119242918Y-91773953D01*
X119271986Y-91761912D01*
X119340111Y-91499370D01*
X118525400Y-90684659D01*
X117710689Y-91499370D01*
X117778814Y-91761912D01*
X117810712Y-91772404D01*
X117739623Y-91801777D01*
X117348550Y-92192167D01*
X117136642Y-92702499D01*
X117136160Y-93255077D01*
X117347177Y-93765777D01*
X117737567Y-94156850D01*
X117961819Y-94249967D01*
X117739623Y-94341777D01*
X117348550Y-94732167D01*
X117136642Y-95242499D01*
X117136160Y-95795077D01*
X117347177Y-96305777D01*
X117737567Y-96696850D01*
X117961819Y-96789967D01*
X117739623Y-96881777D01*
X117348550Y-97272167D01*
X117136642Y-97782499D01*
X117136160Y-98335077D01*
X117347177Y-98845777D01*
X117709605Y-99208839D01*
X117531048Y-99242437D01*
X117317647Y-99379757D01*
X117174483Y-99589283D01*
X117124117Y-99838000D01*
X111872000Y-99838000D01*
X111872000Y-90256118D01*
X117018407Y-90256118D01*
X117062751Y-90846817D01*
X117203488Y-91186586D01*
X117466030Y-91254711D01*
X118280741Y-90440000D01*
X118770059Y-90440000D01*
X119584770Y-91254711D01*
X119847312Y-91186586D01*
X120032393Y-90623882D01*
X119988049Y-90033183D01*
X119847312Y-89693414D01*
X119584770Y-89625289D01*
X118770059Y-90440000D01*
X118280741Y-90440000D01*
X117466030Y-89625289D01*
X117203488Y-89693414D01*
X117018407Y-90256118D01*
X111872000Y-90256118D01*
X111872000Y-88175077D01*
X117136160Y-88175077D01*
X117347177Y-88685777D01*
X117737567Y-89076850D01*
X117807882Y-89106047D01*
X117778814Y-89118088D01*
X117710689Y-89380630D01*
X118525400Y-90195341D01*
X119340111Y-89380630D01*
X119271986Y-89118088D01*
X119240088Y-89107596D01*
X119311177Y-89078223D01*
X119702250Y-88687833D01*
X119914158Y-88177501D01*
X119914640Y-87624923D01*
X119703623Y-87114223D01*
X119313233Y-86723150D01*
X118802901Y-86511242D01*
X118250323Y-86510760D01*
X117739623Y-86721777D01*
X117348550Y-87112167D01*
X117136642Y-87622499D01*
X117136160Y-88175077D01*
X111872000Y-88175077D01*
X111872000Y-86453387D01*
X130722822Y-86453387D01*
X130878844Y-86830989D01*
X130923000Y-86875222D01*
X130923000Y-89374427D01*
X130879860Y-89417492D01*
X130723179Y-89794821D01*
X130722822Y-90203387D01*
X130878844Y-90580989D01*
X131167492Y-90870140D01*
X131544821Y-91026821D01*
X131953387Y-91027178D01*
X132330989Y-90871156D01*
X132620140Y-90582508D01*
X132776821Y-90205179D01*
X132777036Y-89958994D01*
X155254982Y-89958994D01*
X155299515Y-90544891D01*
X155438051Y-90879347D01*
X155699355Y-90945986D01*
X156505341Y-90140000D01*
X156994659Y-90140000D01*
X157800645Y-90945986D01*
X158061949Y-90879347D01*
X158245018Y-90321006D01*
X158200485Y-89735109D01*
X158061949Y-89400653D01*
X157800645Y-89334014D01*
X156994659Y-90140000D01*
X156505341Y-90140000D01*
X155699355Y-89334014D01*
X155438051Y-89400653D01*
X155254982Y-89958994D01*
X132777036Y-89958994D01*
X132777178Y-89796613D01*
X132621156Y-89419011D01*
X132577000Y-89374778D01*
X132577000Y-89089355D01*
X155944014Y-89089355D01*
X156750000Y-89895341D01*
X157555986Y-89089355D01*
X157489347Y-88828051D01*
X156931006Y-88644982D01*
X156345109Y-88689515D01*
X156010653Y-88828051D01*
X155944014Y-89089355D01*
X132577000Y-89089355D01*
X132577000Y-87511230D01*
X157292632Y-87511230D01*
X157615766Y-88293274D01*
X158213578Y-88892131D01*
X158995057Y-89216630D01*
X159841230Y-89217368D01*
X160623274Y-88894234D01*
X161222131Y-88296422D01*
X161546630Y-87514943D01*
X161547368Y-86668770D01*
X161224234Y-85886726D01*
X160626422Y-85287869D01*
X159844943Y-84963370D01*
X158998770Y-84962632D01*
X158216726Y-85285766D01*
X157617869Y-85883578D01*
X157293370Y-86665057D01*
X157292632Y-87511230D01*
X132577000Y-87511230D01*
X132577000Y-86875573D01*
X132620140Y-86832508D01*
X132776821Y-86455179D01*
X132777178Y-86046613D01*
X132635360Y-85703387D01*
X141222822Y-85703387D01*
X141378844Y-86080989D01*
X141667492Y-86370140D01*
X142044821Y-86526821D01*
X142114459Y-86526882D01*
X142164386Y-86560242D01*
X142500000Y-86627000D01*
X154434013Y-86627000D01*
X154794821Y-86776821D01*
X155203387Y-86777178D01*
X155580989Y-86621156D01*
X155870140Y-86332508D01*
X156026821Y-85955179D01*
X156027178Y-85546613D01*
X155871156Y-85169011D01*
X155582508Y-84879860D01*
X155205179Y-84723179D01*
X154796613Y-84722822D01*
X154433155Y-84873000D01*
X143075225Y-84873000D01*
X142832508Y-84629860D01*
X142455179Y-84473179D01*
X142046613Y-84472822D01*
X141669011Y-84628844D01*
X141379860Y-84917492D01*
X141223179Y-85294821D01*
X141222822Y-85703387D01*
X132635360Y-85703387D01*
X132621156Y-85669011D01*
X132332508Y-85379860D01*
X131955179Y-85223179D01*
X131546613Y-85222822D01*
X131169011Y-85378844D01*
X130879860Y-85667492D01*
X130723179Y-86044821D01*
X130722822Y-86453387D01*
X111872000Y-86453387D01*
X111872000Y-83691034D01*
X112522614Y-83691034D01*
X112860940Y-84509846D01*
X113486858Y-85136858D01*
X114305079Y-85476613D01*
X115191034Y-85477386D01*
X116009846Y-85139060D01*
X116636858Y-84513142D01*
X116973097Y-83703387D01*
X124472822Y-83703387D01*
X124628844Y-84080989D01*
X124917492Y-84370140D01*
X125294821Y-84526821D01*
X125703387Y-84527178D01*
X126066845Y-84377000D01*
X131684013Y-84377000D01*
X132044821Y-84526821D01*
X132453387Y-84527178D01*
X132830989Y-84371156D01*
X133120140Y-84082508D01*
X133276821Y-83705179D01*
X133277178Y-83296613D01*
X133121156Y-82919011D01*
X132832508Y-82629860D01*
X132455179Y-82473179D01*
X132046613Y-82472822D01*
X131683155Y-82623000D01*
X126065987Y-82623000D01*
X125705179Y-82473179D01*
X125296613Y-82472822D01*
X124919011Y-82628844D01*
X124629860Y-82917492D01*
X124473179Y-83294821D01*
X124472822Y-83703387D01*
X116973097Y-83703387D01*
X116976613Y-83694921D01*
X116977386Y-82808966D01*
X116639060Y-81990154D01*
X116013142Y-81363142D01*
X115194921Y-81023387D01*
X114308966Y-81022614D01*
X113490154Y-81360940D01*
X112863142Y-81986858D01*
X112523387Y-82805079D01*
X112522614Y-83691034D01*
X111872000Y-83691034D01*
X111872000Y-80703387D01*
X152972822Y-80703387D01*
X153128844Y-81080989D01*
X153417492Y-81370140D01*
X153794821Y-81526821D01*
X154203387Y-81527178D01*
X154566845Y-81377000D01*
X161886734Y-81377000D01*
X162373000Y-81863265D01*
X162373000Y-95386735D01*
X161386734Y-96373000D01*
X157820204Y-96373000D01*
X157531026Y-96083317D01*
X157282224Y-95980005D01*
X157528989Y-95878044D01*
X157916683Y-95491026D01*
X158126760Y-94985104D01*
X158127238Y-94437299D01*
X157918044Y-93931011D01*
X157682373Y-93694928D01*
X157916683Y-93461026D01*
X158126760Y-92955104D01*
X158127238Y-92407299D01*
X157918044Y-91901011D01*
X157531026Y-91513317D01*
X157436226Y-91473953D01*
X157489347Y-91451949D01*
X157555986Y-91190645D01*
X156750000Y-90384659D01*
X155944014Y-91190645D01*
X156010653Y-91451949D01*
X156069523Y-91471251D01*
X155971011Y-91511956D01*
X155583317Y-91898974D01*
X155373240Y-92404896D01*
X155372762Y-92952701D01*
X155581956Y-93458989D01*
X155817627Y-93695072D01*
X155583317Y-93928974D01*
X155373240Y-94434896D01*
X155372762Y-94982701D01*
X155581956Y-95488989D01*
X155968974Y-95876683D01*
X156217776Y-95979995D01*
X155971011Y-96081956D01*
X155583317Y-96468974D01*
X155373240Y-96974896D01*
X155372762Y-97522701D01*
X155581956Y-98028989D01*
X155968974Y-98416683D01*
X156474896Y-98626760D01*
X157022701Y-98627238D01*
X157528989Y-98418044D01*
X157820541Y-98127000D01*
X161750000Y-98127000D01*
X162085613Y-98060242D01*
X162370133Y-97870133D01*
X163870130Y-96370135D01*
X163870133Y-96370133D01*
X163999287Y-96176839D01*
X164060242Y-96085614D01*
X164127000Y-95750000D01*
X164127000Y-82691034D01*
X164522614Y-82691034D01*
X164860940Y-83509846D01*
X165486858Y-84136858D01*
X166305079Y-84476613D01*
X167191034Y-84477386D01*
X168009846Y-84139060D01*
X168636858Y-83513142D01*
X168976613Y-82694921D01*
X168977386Y-81808966D01*
X168639060Y-80990154D01*
X168013142Y-80363142D01*
X167194921Y-80023387D01*
X166308966Y-80022614D01*
X165490154Y-80360940D01*
X164863142Y-80986858D01*
X164523387Y-81805079D01*
X164522614Y-82691034D01*
X164127000Y-82691034D01*
X164127000Y-81500005D01*
X164127001Y-81500000D01*
X164060242Y-81164387D01*
X164030673Y-81120133D01*
X163870133Y-80879867D01*
X163870130Y-80879865D01*
X162870133Y-79879867D01*
X162585613Y-79689758D01*
X162250000Y-79623000D01*
X154565987Y-79623000D01*
X154205179Y-79473179D01*
X153796613Y-79472822D01*
X153419011Y-79628844D01*
X153129860Y-79917492D01*
X152973179Y-80294821D01*
X152972822Y-80703387D01*
X111872000Y-80703387D01*
X111872000Y-79152000D01*
X170158000Y-79152000D01*
X170158000Y-108228000D01*
M02*
