G04 #@! TF.FileFunction,Drawing*
%FSLAX46Y46*%
G04 Gerber Fmt 4.6, Leading zero omitted, Abs format (unit mm)*
G04 Created by KiCad (PCBNEW 4.0.6) date 06/06/17 10:00:33*
%MOMM*%
%LPD*%
G01*
G04 APERTURE LIST*
%ADD10C,0.100000*%
%ADD11C,0.300000*%
G04 APERTURE END LIST*
D10*
D11*
X135571430Y-71828571D02*
X134857144Y-71828571D01*
X134785715Y-72542857D01*
X134857144Y-72471429D01*
X135000001Y-72400000D01*
X135357144Y-72400000D01*
X135500001Y-72471429D01*
X135571430Y-72542857D01*
X135642858Y-72685714D01*
X135642858Y-73042857D01*
X135571430Y-73185714D01*
X135500001Y-73257143D01*
X135357144Y-73328571D01*
X135000001Y-73328571D01*
X134857144Y-73257143D01*
X134785715Y-73185714D01*
X136357143Y-73328571D02*
X136642858Y-73328571D01*
X136785715Y-73257143D01*
X136857143Y-73185714D01*
X137000001Y-72971429D01*
X137071429Y-72685714D01*
X137071429Y-72114286D01*
X137000001Y-71971429D01*
X136928572Y-71900000D01*
X136785715Y-71828571D01*
X136500001Y-71828571D01*
X136357143Y-71900000D01*
X136285715Y-71971429D01*
X136214286Y-72114286D01*
X136214286Y-72471429D01*
X136285715Y-72614286D01*
X136357143Y-72685714D01*
X136500001Y-72757143D01*
X136785715Y-72757143D01*
X136928572Y-72685714D01*
X137000001Y-72614286D01*
X137071429Y-72471429D01*
X137785714Y-73257143D02*
X137785714Y-73328571D01*
X137714286Y-73471429D01*
X137642857Y-73542857D01*
X139142858Y-71828571D02*
X138428572Y-71828571D01*
X138357143Y-72542857D01*
X138428572Y-72471429D01*
X138571429Y-72400000D01*
X138928572Y-72400000D01*
X139071429Y-72471429D01*
X139142858Y-72542857D01*
X139214286Y-72685714D01*
X139214286Y-73042857D01*
X139142858Y-73185714D01*
X139071429Y-73257143D01*
X138928572Y-73328571D01*
X138571429Y-73328571D01*
X138428572Y-73257143D01*
X138357143Y-73185714D01*
X140142857Y-71828571D02*
X140285714Y-71828571D01*
X140428571Y-71900000D01*
X140500000Y-71971429D01*
X140571429Y-72114286D01*
X140642857Y-72400000D01*
X140642857Y-72757143D01*
X140571429Y-73042857D01*
X140500000Y-73185714D01*
X140428571Y-73257143D01*
X140285714Y-73328571D01*
X140142857Y-73328571D01*
X140000000Y-73257143D01*
X139928571Y-73185714D01*
X139857143Y-73042857D01*
X139785714Y-72757143D01*
X139785714Y-72400000D01*
X139857143Y-72114286D01*
X139928571Y-71971429D01*
X140000000Y-71900000D01*
X140142857Y-71828571D01*
X141571428Y-71828571D02*
X141714285Y-71828571D01*
X141857142Y-71900000D01*
X141928571Y-71971429D01*
X142000000Y-72114286D01*
X142071428Y-72400000D01*
X142071428Y-72757143D01*
X142000000Y-73042857D01*
X141928571Y-73185714D01*
X141857142Y-73257143D01*
X141714285Y-73328571D01*
X141571428Y-73328571D01*
X141428571Y-73257143D01*
X141357142Y-73185714D01*
X141285714Y-73042857D01*
X141214285Y-72757143D01*
X141214285Y-72400000D01*
X141285714Y-72114286D01*
X141357142Y-71971429D01*
X141428571Y-71900000D01*
X141571428Y-71828571D01*
X143857142Y-73328571D02*
X143857142Y-72328571D01*
X143857142Y-72471429D02*
X143928570Y-72400000D01*
X144071428Y-72328571D01*
X144285713Y-72328571D01*
X144428570Y-72400000D01*
X144499999Y-72542857D01*
X144499999Y-73328571D01*
X144499999Y-72542857D02*
X144571428Y-72400000D01*
X144714285Y-72328571D01*
X144928570Y-72328571D01*
X145071428Y-72400000D01*
X145142856Y-72542857D01*
X145142856Y-73328571D01*
X145857142Y-73328571D02*
X145857142Y-72328571D01*
X145857142Y-72471429D02*
X145928570Y-72400000D01*
X146071428Y-72328571D01*
X146285713Y-72328571D01*
X146428570Y-72400000D01*
X146499999Y-72542857D01*
X146499999Y-73328571D01*
X146499999Y-72542857D02*
X146571428Y-72400000D01*
X146714285Y-72328571D01*
X146928570Y-72328571D01*
X147071428Y-72400000D01*
X147142856Y-72542857D01*
X147142856Y-73328571D01*
X170750000Y-74000000D02*
X111250000Y-74000000D01*
X170750000Y-78500000D02*
X170750000Y-71300000D01*
X111250000Y-78500000D02*
X111250000Y-71300000D01*
X111250000Y-74000000D02*
X112376504Y-73413579D01*
X111250000Y-74000000D02*
X112376504Y-74586421D01*
X170750000Y-74000000D02*
X169623496Y-73413579D01*
X170750000Y-74000000D02*
X169623496Y-74586421D01*
X184461429Y-87404287D02*
X184461429Y-88332858D01*
X183890000Y-87832858D01*
X183890000Y-88047144D01*
X183818571Y-88190001D01*
X183747143Y-88261430D01*
X183604286Y-88332858D01*
X183247143Y-88332858D01*
X183104286Y-88261430D01*
X183032857Y-88190001D01*
X182961429Y-88047144D01*
X182961429Y-87618572D01*
X183032857Y-87475715D01*
X183104286Y-87404287D01*
X184461429Y-89261429D02*
X184461429Y-89404286D01*
X184390000Y-89547143D01*
X184318571Y-89618572D01*
X184175714Y-89690001D01*
X183890000Y-89761429D01*
X183532857Y-89761429D01*
X183247143Y-89690001D01*
X183104286Y-89618572D01*
X183032857Y-89547143D01*
X182961429Y-89404286D01*
X182961429Y-89261429D01*
X183032857Y-89118572D01*
X183104286Y-89047143D01*
X183247143Y-88975715D01*
X183532857Y-88904286D01*
X183890000Y-88904286D01*
X184175714Y-88975715D01*
X184318571Y-89047143D01*
X184390000Y-89118572D01*
X184461429Y-89261429D01*
X183032857Y-90475714D02*
X182961429Y-90475714D01*
X182818571Y-90404286D01*
X182747143Y-90332857D01*
X183961429Y-91761429D02*
X182961429Y-91761429D01*
X184532857Y-91404286D02*
X183461429Y-91047143D01*
X183461429Y-91975715D01*
X183818571Y-92761429D02*
X183890000Y-92618571D01*
X183961429Y-92547143D01*
X184104286Y-92475714D01*
X184175714Y-92475714D01*
X184318571Y-92547143D01*
X184390000Y-92618571D01*
X184461429Y-92761429D01*
X184461429Y-93047143D01*
X184390000Y-93190000D01*
X184318571Y-93261429D01*
X184175714Y-93332857D01*
X184104286Y-93332857D01*
X183961429Y-93261429D01*
X183890000Y-93190000D01*
X183818571Y-93047143D01*
X183818571Y-92761429D01*
X183747143Y-92618571D01*
X183675714Y-92547143D01*
X183532857Y-92475714D01*
X183247143Y-92475714D01*
X183104286Y-92547143D01*
X183032857Y-92618571D01*
X182961429Y-92761429D01*
X182961429Y-93047143D01*
X183032857Y-93190000D01*
X183104286Y-93261429D01*
X183247143Y-93332857D01*
X183532857Y-93332857D01*
X183675714Y-93261429D01*
X183747143Y-93190000D01*
X183818571Y-93047143D01*
X184461429Y-94261428D02*
X184461429Y-94404285D01*
X184390000Y-94547142D01*
X184318571Y-94618571D01*
X184175714Y-94690000D01*
X183890000Y-94761428D01*
X183532857Y-94761428D01*
X183247143Y-94690000D01*
X183104286Y-94618571D01*
X183032857Y-94547142D01*
X182961429Y-94404285D01*
X182961429Y-94261428D01*
X183032857Y-94118571D01*
X183104286Y-94047142D01*
X183247143Y-93975714D01*
X183532857Y-93904285D01*
X183890000Y-93904285D01*
X184175714Y-93975714D01*
X184318571Y-94047142D01*
X184390000Y-94118571D01*
X184461429Y-94261428D01*
X182961429Y-96547142D02*
X183961429Y-96547142D01*
X183818571Y-96547142D02*
X183890000Y-96618570D01*
X183961429Y-96761428D01*
X183961429Y-96975713D01*
X183890000Y-97118570D01*
X183747143Y-97189999D01*
X182961429Y-97189999D01*
X183747143Y-97189999D02*
X183890000Y-97261428D01*
X183961429Y-97404285D01*
X183961429Y-97618570D01*
X183890000Y-97761428D01*
X183747143Y-97832856D01*
X182961429Y-97832856D01*
X182961429Y-98547142D02*
X183961429Y-98547142D01*
X183818571Y-98547142D02*
X183890000Y-98618570D01*
X183961429Y-98761428D01*
X183961429Y-98975713D01*
X183890000Y-99118570D01*
X183747143Y-99189999D01*
X182961429Y-99189999D01*
X183747143Y-99189999D02*
X183890000Y-99261428D01*
X183961429Y-99404285D01*
X183961429Y-99618570D01*
X183890000Y-99761428D01*
X183747143Y-99832856D01*
X182961429Y-99832856D01*
X182290000Y-78450000D02*
X182290000Y-108930000D01*
X170860000Y-78450000D02*
X184990000Y-78450000D01*
X170860000Y-108930000D02*
X184990000Y-108930000D01*
X182290000Y-108930000D02*
X181703579Y-107803496D01*
X182290000Y-108930000D02*
X182876421Y-107803496D01*
X182290000Y-78450000D02*
X181703579Y-79576504D01*
X182290000Y-78450000D02*
X182876421Y-79576504D01*
M02*
