G04 #@! TF.FileFunction,Copper,L1,Top,Signal*
%FSLAX46Y46*%
G04 Gerber Fmt 4.6, Leading zero omitted, Abs format (unit mm)*
G04 Created by KiCad (PCBNEW 4.0.6) date 06/06/17 10:00:33*
%MOMM*%
%LPD*%
G01*
G04 APERTURE LIST*
%ADD10C,0.100000*%
%ADD11R,4.500000X2.000000*%
%ADD12R,1.524000X1.524000*%
%ADD13C,1.524000*%
%ADD14R,1.500000X1.250000*%
%ADD15R,1.250000X1.500000*%
%ADD16R,1.200000X1.200000*%
%ADD17C,1.500000*%
%ADD18C,3.000000*%
%ADD19R,1.500000X1.300000*%
%ADD20R,1.300000X1.500000*%
%ADD21R,1.500000X0.600000*%
%ADD22R,0.650000X1.060000*%
%ADD23R,0.280000X1.200000*%
%ADD24R,1.200000X0.280000*%
%ADD25R,1.950000X1.500000*%
%ADD26C,0.800000*%
%ADD27C,0.600000*%
%ADD28C,0.250000*%
%ADD29C,0.200000*%
%ADD30C,0.400000*%
%ADD31C,0.500000*%
%ADD32C,0.254000*%
G04 APERTURE END LIST*
D10*
D11*
X150450000Y-104800000D03*
X141950000Y-104800000D03*
D12*
X118525400Y-100600000D03*
D13*
X118525400Y-98060000D03*
X118525400Y-95520000D03*
X118525400Y-92980000D03*
X118525400Y-90440000D03*
X118525400Y-87900000D03*
D14*
X144350000Y-100000000D03*
X146850000Y-100000000D03*
X150550000Y-99800000D03*
X153050000Y-99800000D03*
D15*
X136500000Y-101250000D03*
X136500000Y-103750000D03*
D14*
X145650000Y-88000000D03*
X143150000Y-88000000D03*
X149150000Y-88000000D03*
X151650000Y-88000000D03*
D15*
X136750000Y-83250000D03*
X136750000Y-85750000D03*
D14*
X126750000Y-86750000D03*
X124250000Y-86750000D03*
D16*
X126400000Y-81250000D03*
X128600000Y-81250000D03*
D17*
X156750000Y-90140000D03*
X156750000Y-92680000D03*
X156750000Y-94710000D03*
X156750000Y-97250000D03*
D18*
X159420000Y-87090000D03*
X159420000Y-100810000D03*
D19*
X149190000Y-91150000D03*
X151890000Y-91150000D03*
X149190000Y-93690000D03*
X151890000Y-93690000D03*
D20*
X120000000Y-84100000D03*
X120000000Y-81400000D03*
D21*
X123050000Y-90805000D03*
X123050000Y-92075000D03*
X123050000Y-93345000D03*
X123050000Y-94615000D03*
X123050000Y-95885000D03*
X123050000Y-97155000D03*
X123050000Y-98425000D03*
X123050000Y-99695000D03*
X128450000Y-99695000D03*
X128450000Y-98425000D03*
X128450000Y-97155000D03*
X128450000Y-95885000D03*
X128450000Y-94615000D03*
X128450000Y-93345000D03*
X128450000Y-92075000D03*
X128450000Y-90805000D03*
D22*
X152950000Y-82150000D03*
X152000000Y-82150000D03*
X151050000Y-82150000D03*
X151050000Y-84350000D03*
X152950000Y-84350000D03*
D23*
X140860000Y-91710000D03*
X140360000Y-91710000D03*
X139860000Y-91710000D03*
X139360000Y-91710000D03*
X138860000Y-91710000D03*
X138360000Y-91710000D03*
X137860000Y-91710000D03*
X137360000Y-91710000D03*
D24*
X135860000Y-93210000D03*
X135860000Y-93710000D03*
X135860000Y-94210000D03*
X135860000Y-94710000D03*
X135860000Y-95210000D03*
X135860000Y-95710000D03*
X135860000Y-96210000D03*
X135860000Y-96710000D03*
D23*
X137360000Y-98210000D03*
X137860000Y-98210000D03*
X138360000Y-98210000D03*
X138860000Y-98210000D03*
X139360000Y-98210000D03*
X139860000Y-98210000D03*
X140360000Y-98210000D03*
X140860000Y-98210000D03*
D24*
X142360000Y-96710000D03*
X142360000Y-96210000D03*
X142360000Y-95710000D03*
X142360000Y-95210000D03*
X142360000Y-94710000D03*
X142360000Y-94210000D03*
X142360000Y-93710000D03*
X142360000Y-93210000D03*
D25*
X142425000Y-83200000D03*
X145175000Y-83200000D03*
D26*
X131750000Y-86250000D03*
X131750000Y-90000000D03*
X154000000Y-80500000D03*
X155000000Y-85750000D03*
X142250000Y-85500000D03*
X132250000Y-83500000D03*
X125500000Y-83500000D03*
D27*
X146250000Y-91250000D03*
X140000000Y-96500000D03*
X138918221Y-100047447D03*
X146750000Y-95250000D03*
X125500000Y-92500000D03*
X132250000Y-94500000D03*
X125750000Y-95250000D03*
X131000000Y-95750000D03*
X133750000Y-98250000D03*
X125500000Y-98250000D03*
D28*
X144350000Y-100000000D02*
X141500000Y-100000000D01*
X140860000Y-99360000D02*
X140860000Y-98210000D01*
X141500000Y-100000000D02*
X140860000Y-99360000D01*
X144350000Y-100000000D02*
X144350000Y-101650000D01*
X144350000Y-101650000D02*
X141950000Y-104050000D01*
X141950000Y-104050000D02*
X141950000Y-104800000D01*
D29*
X139860000Y-91710000D02*
X139860000Y-88890000D01*
X139860000Y-88890000D02*
X140000000Y-88750000D01*
X138360000Y-98210000D02*
X138360000Y-99010000D01*
X138360000Y-99010000D02*
X137620000Y-99750000D01*
D28*
X152000000Y-82150000D02*
X152000000Y-81000000D01*
X142360000Y-96710000D02*
X147460000Y-96710000D01*
X147460000Y-96710000D02*
X150550000Y-99800000D01*
X150550000Y-99800000D02*
X150550000Y-104700000D01*
X150550000Y-104700000D02*
X150450000Y-104800000D01*
X136500000Y-101250000D02*
X138750000Y-101250000D01*
X139860000Y-100140000D02*
X139860000Y-98210000D01*
X138750000Y-101250000D02*
X139860000Y-100140000D01*
D30*
X131750000Y-92250000D02*
X133250000Y-93750000D01*
D29*
X134210000Y-94710000D02*
X133250000Y-93750000D01*
X134210000Y-94710000D02*
X135860000Y-94710000D01*
X140000000Y-94750000D02*
X140000000Y-93250000D01*
X140360000Y-92890000D02*
X140360000Y-91710000D01*
X140000000Y-93250000D02*
X140360000Y-92890000D01*
X139960000Y-94710000D02*
X140000000Y-94750000D01*
X140000000Y-94750000D02*
X140750000Y-95500000D01*
X140360000Y-98210000D02*
X140360000Y-97390000D01*
X140750000Y-97000000D02*
X140360000Y-97390000D01*
X140750000Y-95500000D02*
X140750000Y-97000000D01*
X139960000Y-94710000D02*
X138750000Y-94710000D01*
D30*
X131750000Y-92000000D02*
X131750000Y-92250000D01*
X131750000Y-92250000D02*
X131750000Y-92269998D01*
X124250000Y-86000000D02*
X125500000Y-84750000D01*
X125500000Y-84750000D02*
X130250000Y-84750000D01*
X130250000Y-84750000D02*
X131750000Y-86250000D01*
X131750000Y-90000000D02*
X131750000Y-92000000D01*
X124250000Y-86750000D02*
X124250000Y-86000000D01*
X124250000Y-86750000D02*
X123050000Y-87950000D01*
D31*
X123050000Y-87950000D02*
X123050000Y-90805000D01*
D30*
X140750000Y-90250000D02*
X143400000Y-90250000D01*
X143400000Y-90250000D02*
X145650000Y-88000000D01*
D29*
X140360000Y-91710000D02*
X140360000Y-90640000D01*
X140360000Y-90640000D02*
X140750000Y-90250000D01*
X135860000Y-94710000D02*
X138750000Y-94710000D01*
X138750000Y-94710000D02*
X138790000Y-94710000D01*
D31*
X149150000Y-88000000D02*
X149150000Y-86850000D01*
X151300000Y-86000000D02*
X152950000Y-84350000D01*
X150000000Y-86000000D02*
X151300000Y-86000000D01*
X149150000Y-86850000D02*
X150000000Y-86000000D01*
X149150000Y-88000000D02*
X145650000Y-88000000D01*
X152950000Y-82150000D02*
X152950000Y-81550000D01*
X152950000Y-81550000D02*
X154000000Y-80500000D01*
X141800000Y-83200000D02*
X141800000Y-85050000D01*
X155900000Y-82150000D02*
X152950000Y-82150000D01*
X156250000Y-82500000D02*
X155900000Y-82150000D01*
X156250000Y-84500000D02*
X156250000Y-82500000D01*
X155000000Y-85750000D02*
X156250000Y-84500000D01*
X141800000Y-85050000D02*
X142250000Y-85500000D01*
X120000000Y-84100000D02*
X122650000Y-84100000D01*
X132500000Y-83250000D02*
X136750000Y-83250000D01*
X132250000Y-83500000D02*
X132500000Y-83250000D01*
X123250000Y-83500000D02*
X125500000Y-83500000D01*
X122650000Y-84100000D02*
X123250000Y-83500000D01*
X136750000Y-83250000D02*
X141750000Y-83250000D01*
X141750000Y-83250000D02*
X141800000Y-83200000D01*
X141800000Y-83200000D02*
X141800000Y-82200000D01*
X149900000Y-81000000D02*
X151050000Y-82150000D01*
X143000000Y-81000000D02*
X149900000Y-81000000D01*
X141800000Y-82200000D02*
X143000000Y-81000000D01*
X118525400Y-87900000D02*
X118525400Y-85574600D01*
X118525400Y-85574600D02*
X120000000Y-84100000D01*
D28*
X120000000Y-81400000D02*
X126250000Y-81400000D01*
X126250000Y-81400000D02*
X126400000Y-81250000D01*
X120000000Y-81400000D02*
X120650000Y-81400000D01*
X118525400Y-95520000D02*
X120520000Y-95520000D01*
X120885000Y-95885000D02*
X123050000Y-95885000D01*
X120520000Y-95520000D02*
X120885000Y-95885000D01*
X118525400Y-98060000D02*
X120310000Y-98060000D01*
X120675000Y-98425000D02*
X123050000Y-98425000D01*
X120310000Y-98060000D02*
X120675000Y-98425000D01*
X135860000Y-96210000D02*
X132790000Y-96210000D01*
X120925400Y-103000000D02*
X118525400Y-100600000D01*
X130250000Y-103000000D02*
X120925400Y-103000000D01*
X131000000Y-102250000D02*
X130250000Y-103000000D01*
X131000000Y-98000000D02*
X131000000Y-102250000D01*
X132790000Y-96210000D02*
X131000000Y-98000000D01*
X118525400Y-92980000D02*
X119480000Y-92980000D01*
X119845000Y-93345000D02*
X123050000Y-93345000D01*
X119480000Y-92980000D02*
X119845000Y-93345000D01*
X151890000Y-91150000D02*
X155220000Y-91150000D01*
X155220000Y-91150000D02*
X156750000Y-92680000D01*
X151890000Y-93690000D02*
X155730000Y-93690000D01*
X155730000Y-93690000D02*
X156750000Y-94710000D01*
D29*
X146250000Y-91250000D02*
X149090000Y-91250000D01*
X149090000Y-91250000D02*
X149190000Y-91150000D01*
X139360000Y-98210000D02*
X139360000Y-97140000D01*
X139360000Y-97140000D02*
X140000000Y-96500000D01*
X138918221Y-100047447D02*
X138918221Y-98268221D01*
X138918221Y-98268221D02*
X138860000Y-98210000D01*
X149190000Y-93690000D02*
X149090000Y-93690000D01*
X149090000Y-93690000D02*
X147530000Y-95250000D01*
X147530000Y-95250000D02*
X146750000Y-95250000D01*
X123050000Y-92075000D02*
X125075000Y-92075000D01*
X125075000Y-92075000D02*
X125500000Y-92500000D01*
X132250000Y-94500000D02*
X132960000Y-95210000D01*
X132960000Y-95210000D02*
X135860000Y-95210000D01*
X135860000Y-95710000D02*
X131040000Y-95710000D01*
X125115000Y-94615000D02*
X123050000Y-94615000D01*
X125750000Y-95250000D02*
X125115000Y-94615000D01*
X131040000Y-95710000D02*
X131000000Y-95750000D01*
X133750000Y-98250000D02*
X135290000Y-96710000D01*
X135290000Y-96710000D02*
X135860000Y-96710000D01*
X123050000Y-97155000D02*
X124405000Y-97155000D01*
X124405000Y-97155000D02*
X125500000Y-98250000D01*
D32*
G36*
X170058000Y-108128000D02*
X111972000Y-108128000D01*
X111972000Y-105710838D01*
X112422597Y-105710838D01*
X112776115Y-106566418D01*
X113430139Y-107221585D01*
X114285100Y-107576596D01*
X115210838Y-107577403D01*
X116066418Y-107223885D01*
X116721585Y-106569861D01*
X117076596Y-105714900D01*
X117077403Y-104789162D01*
X116825600Y-104179750D01*
X135048000Y-104179750D01*
X135048000Y-104664501D01*
X135173903Y-104968458D01*
X135406542Y-105201097D01*
X135710500Y-105327000D01*
X136070250Y-105327000D01*
X136277000Y-105120250D01*
X136277000Y-103973000D01*
X136723000Y-103973000D01*
X136723000Y-105120250D01*
X136929750Y-105327000D01*
X137289500Y-105327000D01*
X137593458Y-105201097D01*
X137826097Y-104968458D01*
X137952000Y-104664501D01*
X137952000Y-104179750D01*
X137745250Y-103973000D01*
X136723000Y-103973000D01*
X136277000Y-103973000D01*
X135254750Y-103973000D01*
X135048000Y-104179750D01*
X116825600Y-104179750D01*
X116723885Y-103933582D01*
X116069861Y-103278415D01*
X115214900Y-102923404D01*
X114289162Y-102922597D01*
X113433582Y-103276115D01*
X112778415Y-103930139D01*
X112423404Y-104785100D01*
X112422597Y-105710838D01*
X111972000Y-105710838D01*
X111972000Y-99838000D01*
X117022158Y-99838000D01*
X117022158Y-101362000D01*
X117072851Y-101631410D01*
X117232072Y-101878846D01*
X117475015Y-102044843D01*
X117763400Y-102103242D01*
X118823732Y-102103242D01*
X120322945Y-103602455D01*
X120599354Y-103787145D01*
X120925400Y-103852000D01*
X130250000Y-103852000D01*
X130576046Y-103787145D01*
X130852455Y-103602455D01*
X131602455Y-102852455D01*
X131787145Y-102576046D01*
X131852000Y-102250000D01*
X131852000Y-98352910D01*
X133142910Y-97062000D01*
X133768446Y-97062000D01*
X133607571Y-97222875D01*
X133546613Y-97222822D01*
X133169011Y-97378844D01*
X132879860Y-97667492D01*
X132723179Y-98044821D01*
X132722822Y-98453387D01*
X132878844Y-98830989D01*
X133167492Y-99120140D01*
X133544821Y-99276821D01*
X133953387Y-99277178D01*
X134330989Y-99121156D01*
X134620140Y-98832508D01*
X134776821Y-98455179D01*
X134776876Y-98392678D01*
X135578312Y-97591242D01*
X136460000Y-97591242D01*
X136483450Y-97586830D01*
X136478758Y-97610000D01*
X136478758Y-98810000D01*
X136529451Y-99079410D01*
X136688672Y-99326846D01*
X136931615Y-99492843D01*
X137220000Y-99551242D01*
X137500000Y-99551242D01*
X137614038Y-99529784D01*
X137720000Y-99551242D01*
X137848461Y-99551242D01*
X137988209Y-99609127D01*
X137891400Y-99842268D01*
X137891043Y-100250834D01*
X137951851Y-100398000D01*
X137847049Y-100398000D01*
X137815549Y-100230590D01*
X137656328Y-99983154D01*
X137413385Y-99817157D01*
X137125000Y-99758758D01*
X135875000Y-99758758D01*
X135605590Y-99809451D01*
X135358154Y-99968672D01*
X135192157Y-100211615D01*
X135133758Y-100500000D01*
X135133758Y-102000000D01*
X135184451Y-102269410D01*
X135282955Y-102422490D01*
X135173903Y-102531542D01*
X135048000Y-102835499D01*
X135048000Y-103320250D01*
X135254750Y-103527000D01*
X136277000Y-103527000D01*
X136277000Y-103507000D01*
X136723000Y-103507000D01*
X136723000Y-103527000D01*
X137745250Y-103527000D01*
X137952000Y-103320250D01*
X137952000Y-102835499D01*
X137826097Y-102531542D01*
X137716550Y-102421995D01*
X137807843Y-102288385D01*
X137845587Y-102102000D01*
X138750000Y-102102000D01*
X139076046Y-102037145D01*
X139352455Y-101852455D01*
X140462455Y-100742455D01*
X140647145Y-100466046D01*
X140666057Y-100370967D01*
X140897545Y-100602455D01*
X141173954Y-100787145D01*
X141500000Y-100852000D01*
X142901471Y-100852000D01*
X142909451Y-100894410D01*
X143068672Y-101141846D01*
X143311615Y-101307843D01*
X143457670Y-101337420D01*
X141736332Y-103058758D01*
X139700000Y-103058758D01*
X139430590Y-103109451D01*
X139183154Y-103268672D01*
X139017157Y-103511615D01*
X138958758Y-103800000D01*
X138958758Y-105800000D01*
X139009451Y-106069410D01*
X139168672Y-106316846D01*
X139411615Y-106482843D01*
X139700000Y-106541242D01*
X144200000Y-106541242D01*
X144469410Y-106490549D01*
X144716846Y-106331328D01*
X144882843Y-106088385D01*
X144941242Y-105800000D01*
X144941242Y-103800000D01*
X144890549Y-103530590D01*
X144731328Y-103283154D01*
X144488385Y-103117157D01*
X144200000Y-103058758D01*
X144146152Y-103058758D01*
X144952455Y-102252455D01*
X145137145Y-101976046D01*
X145202000Y-101650000D01*
X145202000Y-101347049D01*
X145369410Y-101315549D01*
X145522490Y-101217045D01*
X145631542Y-101326097D01*
X145935499Y-101452000D01*
X146420250Y-101452000D01*
X146627000Y-101245250D01*
X146627000Y-100223000D01*
X147073000Y-100223000D01*
X147073000Y-101245250D01*
X147279750Y-101452000D01*
X147764501Y-101452000D01*
X148068458Y-101326097D01*
X148301097Y-101093458D01*
X148427000Y-100789500D01*
X148427000Y-100429750D01*
X148220250Y-100223000D01*
X147073000Y-100223000D01*
X146627000Y-100223000D01*
X146607000Y-100223000D01*
X146607000Y-99777000D01*
X146627000Y-99777000D01*
X146627000Y-98754750D01*
X147073000Y-98754750D01*
X147073000Y-99777000D01*
X148220250Y-99777000D01*
X148427000Y-99570250D01*
X148427000Y-99210500D01*
X148301097Y-98906542D01*
X148068458Y-98673903D01*
X147764501Y-98548000D01*
X147279750Y-98548000D01*
X147073000Y-98754750D01*
X146627000Y-98754750D01*
X146420250Y-98548000D01*
X145935499Y-98548000D01*
X145631542Y-98673903D01*
X145521995Y-98783450D01*
X145388385Y-98692157D01*
X145100000Y-98633758D01*
X143600000Y-98633758D01*
X143330590Y-98684451D01*
X143083154Y-98843672D01*
X142917157Y-99086615D01*
X142904726Y-99148000D01*
X141852910Y-99148000D01*
X141712000Y-99007090D01*
X141712000Y-98954402D01*
X141741242Y-98810000D01*
X141741242Y-97610000D01*
X141736830Y-97586550D01*
X141760000Y-97591242D01*
X142960000Y-97591242D01*
X143115408Y-97562000D01*
X147107090Y-97562000D01*
X149058758Y-99513668D01*
X149058758Y-100425000D01*
X149109451Y-100694410D01*
X149268672Y-100941846D01*
X149511615Y-101107843D01*
X149698000Y-101145587D01*
X149698000Y-103058758D01*
X148200000Y-103058758D01*
X147930590Y-103109451D01*
X147683154Y-103268672D01*
X147517157Y-103511615D01*
X147458758Y-103800000D01*
X147458758Y-105800000D01*
X147509451Y-106069410D01*
X147668672Y-106316846D01*
X147911615Y-106482843D01*
X148200000Y-106541242D01*
X152700000Y-106541242D01*
X152969410Y-106490549D01*
X153216846Y-106331328D01*
X153382843Y-106088385D01*
X153441242Y-105800000D01*
X153441242Y-105710838D01*
X164422597Y-105710838D01*
X164776115Y-106566418D01*
X165430139Y-107221585D01*
X166285100Y-107576596D01*
X167210838Y-107577403D01*
X168066418Y-107223885D01*
X168721585Y-106569861D01*
X169076596Y-105714900D01*
X169077403Y-104789162D01*
X168723885Y-103933582D01*
X168069861Y-103278415D01*
X167214900Y-102923404D01*
X166289162Y-102922597D01*
X165433582Y-103276115D01*
X164778415Y-103930139D01*
X164423404Y-104785100D01*
X164422597Y-105710838D01*
X153441242Y-105710838D01*
X153441242Y-103800000D01*
X153390549Y-103530590D01*
X153231328Y-103283154D01*
X152988385Y-103117157D01*
X152700000Y-103058758D01*
X151402000Y-103058758D01*
X151402000Y-101147049D01*
X151569410Y-101115549D01*
X151722490Y-101017045D01*
X151831542Y-101126097D01*
X152135499Y-101252000D01*
X152620250Y-101252000D01*
X152827000Y-101045250D01*
X152827000Y-100023000D01*
X153273000Y-100023000D01*
X153273000Y-101045250D01*
X153479750Y-101252000D01*
X153964501Y-101252000D01*
X153966833Y-101251034D01*
X157192614Y-101251034D01*
X157530940Y-102069846D01*
X158156858Y-102696858D01*
X158975079Y-103036613D01*
X159861034Y-103037386D01*
X160679846Y-102699060D01*
X161306858Y-102073142D01*
X161646613Y-101254921D01*
X161647386Y-100368966D01*
X161309060Y-99550154D01*
X160683142Y-98923142D01*
X159864921Y-98583387D01*
X158978966Y-98582614D01*
X158160154Y-98920940D01*
X157533142Y-99546858D01*
X157193387Y-100365079D01*
X157192614Y-101251034D01*
X153966833Y-101251034D01*
X154268458Y-101126097D01*
X154501097Y-100893458D01*
X154627000Y-100589500D01*
X154627000Y-100229750D01*
X154420250Y-100023000D01*
X153273000Y-100023000D01*
X152827000Y-100023000D01*
X152807000Y-100023000D01*
X152807000Y-99577000D01*
X152827000Y-99577000D01*
X152827000Y-98554750D01*
X153273000Y-98554750D01*
X153273000Y-99577000D01*
X154420250Y-99577000D01*
X154627000Y-99370250D01*
X154627000Y-99010500D01*
X154501097Y-98706542D01*
X154268458Y-98473903D01*
X153964501Y-98348000D01*
X153479750Y-98348000D01*
X153273000Y-98554750D01*
X152827000Y-98554750D01*
X152620250Y-98348000D01*
X152135499Y-98348000D01*
X151831542Y-98473903D01*
X151721995Y-98583450D01*
X151588385Y-98492157D01*
X151300000Y-98433758D01*
X150388668Y-98433758D01*
X148062455Y-96107545D01*
X147884503Y-95988641D01*
X148114777Y-95834777D01*
X148868312Y-95081242D01*
X149940000Y-95081242D01*
X150209410Y-95030549D01*
X150456846Y-94871328D01*
X150539835Y-94749870D01*
X150608672Y-94856846D01*
X150851615Y-95022843D01*
X151140000Y-95081242D01*
X152640000Y-95081242D01*
X152909410Y-95030549D01*
X153156846Y-94871328D01*
X153322843Y-94628385D01*
X153340336Y-94542000D01*
X155273146Y-94542000D01*
X155272744Y-95002505D01*
X155497130Y-95545560D01*
X155912254Y-95961409D01*
X155956463Y-95979766D01*
X155914440Y-95997130D01*
X155498591Y-96412254D01*
X155273257Y-96954918D01*
X155272744Y-97542505D01*
X155497130Y-98085560D01*
X155912254Y-98501409D01*
X156454918Y-98726743D01*
X157042505Y-98727256D01*
X157585560Y-98502870D01*
X158001409Y-98087746D01*
X158226743Y-97545082D01*
X158227256Y-96957495D01*
X158002870Y-96414440D01*
X157587746Y-95998591D01*
X157543537Y-95980234D01*
X157585560Y-95962870D01*
X158001409Y-95547746D01*
X158226743Y-95005082D01*
X158227256Y-94417495D01*
X158002870Y-93874440D01*
X157823794Y-93695051D01*
X158001409Y-93517746D01*
X158226743Y-92975082D01*
X158227256Y-92387495D01*
X158002870Y-91844440D01*
X157587746Y-91428591D01*
X157540013Y-91408770D01*
X157570445Y-91275815D01*
X156750000Y-90455370D01*
X156735858Y-90469512D01*
X156420488Y-90154142D01*
X156434630Y-90140000D01*
X157065370Y-90140000D01*
X157885815Y-90960445D01*
X158169320Y-90895553D01*
X158350418Y-90294890D01*
X158287867Y-89670646D01*
X158169320Y-89384447D01*
X157885815Y-89319555D01*
X157065370Y-90140000D01*
X156434630Y-90140000D01*
X155614185Y-89319555D01*
X155330680Y-89384447D01*
X155149582Y-89985110D01*
X155180934Y-90298000D01*
X153343233Y-90298000D01*
X153330549Y-90230590D01*
X153171328Y-89983154D01*
X152928385Y-89817157D01*
X152640000Y-89758758D01*
X151140000Y-89758758D01*
X150870590Y-89809451D01*
X150623154Y-89968672D01*
X150540165Y-90090130D01*
X150471328Y-89983154D01*
X150228385Y-89817157D01*
X149940000Y-89758758D01*
X148440000Y-89758758D01*
X148170590Y-89809451D01*
X147923154Y-89968672D01*
X147757157Y-90211615D01*
X147714351Y-90423000D01*
X146875573Y-90423000D01*
X146832508Y-90379860D01*
X146455179Y-90223179D01*
X146046613Y-90222822D01*
X145669011Y-90378844D01*
X145379860Y-90667492D01*
X145223179Y-91044821D01*
X145222822Y-91453387D01*
X145378844Y-91830989D01*
X145667492Y-92120140D01*
X146044821Y-92276821D01*
X146453387Y-92277178D01*
X146830989Y-92121156D01*
X146875222Y-92077000D01*
X147754335Y-92077000D01*
X147908672Y-92316846D01*
X148060278Y-92420435D01*
X147923154Y-92508672D01*
X147757157Y-92751615D01*
X147698758Y-93040000D01*
X147698758Y-93911688D01*
X147260490Y-94349956D01*
X146955179Y-94223179D01*
X146546613Y-94222822D01*
X146169011Y-94378844D01*
X145879860Y-94667492D01*
X145723179Y-95044821D01*
X145722822Y-95453387D01*
X145878844Y-95830989D01*
X145905808Y-95858000D01*
X143699622Y-95858000D01*
X143701242Y-95850000D01*
X143701242Y-95570000D01*
X143679784Y-95455962D01*
X143701242Y-95350000D01*
X143701242Y-95070000D01*
X143679784Y-94955962D01*
X143701242Y-94850000D01*
X143701242Y-94570000D01*
X143679784Y-94455962D01*
X143701242Y-94350000D01*
X143701242Y-94070000D01*
X143679784Y-93955962D01*
X143701242Y-93850000D01*
X143701242Y-93570000D01*
X143679784Y-93455962D01*
X143701242Y-93350000D01*
X143701242Y-93070000D01*
X143650549Y-92800590D01*
X143491328Y-92553154D01*
X143248385Y-92387157D01*
X142960000Y-92328758D01*
X141760000Y-92328758D01*
X141736550Y-92333170D01*
X141741242Y-92310000D01*
X141741242Y-91177000D01*
X143400000Y-91177000D01*
X143754748Y-91106436D01*
X144055488Y-90905488D01*
X145594734Y-89366242D01*
X146400000Y-89366242D01*
X146669410Y-89315549D01*
X146916846Y-89156328D01*
X147039376Y-88977000D01*
X147762596Y-88977000D01*
X147868672Y-89141846D01*
X148111615Y-89307843D01*
X148400000Y-89366242D01*
X149900000Y-89366242D01*
X150169410Y-89315549D01*
X150322490Y-89217045D01*
X150431542Y-89326097D01*
X150735499Y-89452000D01*
X151220250Y-89452000D01*
X151427000Y-89245250D01*
X151427000Y-88223000D01*
X151873000Y-88223000D01*
X151873000Y-89245250D01*
X152079750Y-89452000D01*
X152564501Y-89452000D01*
X152868458Y-89326097D01*
X153101097Y-89093458D01*
X153138074Y-89004185D01*
X155929555Y-89004185D01*
X156750000Y-89824630D01*
X157570445Y-89004185D01*
X157505553Y-88720680D01*
X156904890Y-88539582D01*
X156280646Y-88602133D01*
X155994447Y-88720680D01*
X155929555Y-89004185D01*
X153138074Y-89004185D01*
X153227000Y-88789500D01*
X153227000Y-88429750D01*
X153020250Y-88223000D01*
X151873000Y-88223000D01*
X151427000Y-88223000D01*
X151407000Y-88223000D01*
X151407000Y-87777000D01*
X151427000Y-87777000D01*
X151427000Y-87757000D01*
X151873000Y-87757000D01*
X151873000Y-87777000D01*
X153020250Y-87777000D01*
X153227000Y-87570250D01*
X153227000Y-87531034D01*
X157192614Y-87531034D01*
X157530940Y-88349846D01*
X158156858Y-88976858D01*
X158975079Y-89316613D01*
X159861034Y-89317386D01*
X160679846Y-88979060D01*
X161306858Y-88353142D01*
X161646613Y-87534921D01*
X161647386Y-86648966D01*
X161309060Y-85830154D01*
X160683142Y-85203142D01*
X159864921Y-84863387D01*
X158978966Y-84862614D01*
X158160154Y-85200940D01*
X157533142Y-85826858D01*
X157193387Y-86645079D01*
X157192614Y-87531034D01*
X153227000Y-87531034D01*
X153227000Y-87210500D01*
X153101097Y-86906542D01*
X152868458Y-86673903D01*
X152564501Y-86548000D01*
X152133686Y-86548000D01*
X153060445Y-85621242D01*
X153275000Y-85621242D01*
X153544410Y-85570549D01*
X153791846Y-85411328D01*
X153957843Y-85168385D01*
X154016242Y-84880000D01*
X154016242Y-83820000D01*
X153965549Y-83550590D01*
X153806328Y-83303154D01*
X153730093Y-83251065D01*
X153791846Y-83211328D01*
X153849465Y-83127000D01*
X155273000Y-83127000D01*
X155273000Y-84095314D01*
X154723470Y-84644844D01*
X154362440Y-84794019D01*
X154045133Y-85110772D01*
X153873196Y-85524842D01*
X153872805Y-85973191D01*
X154044019Y-86387560D01*
X154360772Y-86704867D01*
X154774842Y-86876804D01*
X155223191Y-86877195D01*
X155637560Y-86705981D01*
X155954867Y-86389228D01*
X156105697Y-86025989D01*
X156940843Y-85190843D01*
X156986043Y-85123196D01*
X157152630Y-84873882D01*
X157227000Y-84500000D01*
X157227000Y-82710838D01*
X164422597Y-82710838D01*
X164776115Y-83566418D01*
X165430139Y-84221585D01*
X166285100Y-84576596D01*
X167210838Y-84577403D01*
X168066418Y-84223885D01*
X168721585Y-83569861D01*
X169076596Y-82714900D01*
X169077403Y-81789162D01*
X168723885Y-80933582D01*
X168069861Y-80278415D01*
X167214900Y-79923404D01*
X166289162Y-79922597D01*
X165433582Y-80276115D01*
X164778415Y-80930139D01*
X164423404Y-81785100D01*
X164422597Y-82710838D01*
X157227000Y-82710838D01*
X157227000Y-82500000D01*
X157152630Y-82126118D01*
X157047428Y-81968672D01*
X156940844Y-81809157D01*
X156590843Y-81459157D01*
X156463220Y-81373882D01*
X156273882Y-81247370D01*
X155900000Y-81173000D01*
X154921036Y-81173000D01*
X154954867Y-81139228D01*
X155126804Y-80725158D01*
X155127195Y-80276809D01*
X154955981Y-79862440D01*
X154639228Y-79545133D01*
X154225158Y-79373196D01*
X153776809Y-79372805D01*
X153362440Y-79544019D01*
X153045133Y-79860772D01*
X152894303Y-80224011D01*
X152259157Y-80859157D01*
X152170684Y-80991566D01*
X152162500Y-80999750D01*
X152162500Y-81003814D01*
X152047370Y-81176118D01*
X152046945Y-81178253D01*
X151999415Y-81247815D01*
X151906328Y-81103154D01*
X151837500Y-81056126D01*
X151837500Y-80999750D01*
X151630750Y-80793000D01*
X151510500Y-80793000D01*
X151303461Y-80878758D01*
X151160444Y-80878758D01*
X150590843Y-80309157D01*
X150539487Y-80274842D01*
X150273882Y-80097370D01*
X149900000Y-80023000D01*
X143000000Y-80023000D01*
X142626118Y-80097370D01*
X142572564Y-80133154D01*
X142309156Y-80309157D01*
X141109157Y-81509157D01*
X140897370Y-81826118D01*
X140856704Y-82030560D01*
X140767157Y-82161615D01*
X140744601Y-82273000D01*
X138073529Y-82273000D01*
X138065549Y-82230590D01*
X137906328Y-81983154D01*
X137663385Y-81817157D01*
X137375000Y-81758758D01*
X136125000Y-81758758D01*
X135855590Y-81809451D01*
X135608154Y-81968672D01*
X135442157Y-82211615D01*
X135429726Y-82273000D01*
X132500000Y-82273000D01*
X132126118Y-82347370D01*
X132087972Y-82372858D01*
X132026809Y-82372805D01*
X131612440Y-82544019D01*
X131295133Y-82860772D01*
X131123196Y-83274842D01*
X131122805Y-83723191D01*
X131294019Y-84137560D01*
X131610772Y-84454867D01*
X132024842Y-84626804D01*
X132473191Y-84627195D01*
X132887560Y-84455981D01*
X133116941Y-84227000D01*
X135426471Y-84227000D01*
X135434451Y-84269410D01*
X135532955Y-84422490D01*
X135423903Y-84531542D01*
X135298000Y-84835499D01*
X135298000Y-85320250D01*
X135504750Y-85527000D01*
X136527000Y-85527000D01*
X136527000Y-85507000D01*
X136973000Y-85507000D01*
X136973000Y-85527000D01*
X137995250Y-85527000D01*
X138202000Y-85320250D01*
X138202000Y-84835499D01*
X138076097Y-84531542D01*
X137966550Y-84421995D01*
X138057843Y-84288385D01*
X138070274Y-84227000D01*
X140764335Y-84227000D01*
X140823000Y-84318168D01*
X140823000Y-85050000D01*
X140897370Y-85423882D01*
X141097362Y-85723191D01*
X141109157Y-85740843D01*
X141144844Y-85776530D01*
X141294019Y-86137560D01*
X141610772Y-86454867D01*
X142024842Y-86626804D01*
X142045206Y-86626822D01*
X141931542Y-86673903D01*
X141698903Y-86906542D01*
X141573000Y-87210500D01*
X141573000Y-87570250D01*
X141779750Y-87777000D01*
X142927000Y-87777000D01*
X142927000Y-86754750D01*
X142720250Y-86548000D01*
X142664857Y-86548000D01*
X142887560Y-86455981D01*
X143204867Y-86139228D01*
X143376804Y-85725158D01*
X143377195Y-85276809D01*
X143205981Y-84862440D01*
X143035082Y-84691242D01*
X143400000Y-84691242D01*
X143669410Y-84640549D01*
X143700797Y-84620352D01*
X143731542Y-84651097D01*
X144035499Y-84777000D01*
X144745250Y-84777000D01*
X144952000Y-84570250D01*
X144952000Y-83423000D01*
X145398000Y-83423000D01*
X145398000Y-84570250D01*
X145604750Y-84777000D01*
X146314501Y-84777000D01*
X146618458Y-84651097D01*
X146851097Y-84418458D01*
X146977000Y-84114500D01*
X146977000Y-83629750D01*
X146770250Y-83423000D01*
X145398000Y-83423000D01*
X144952000Y-83423000D01*
X144932000Y-83423000D01*
X144932000Y-82977000D01*
X144952000Y-82977000D01*
X144952000Y-82957000D01*
X145398000Y-82957000D01*
X145398000Y-82977000D01*
X146770250Y-82977000D01*
X146977000Y-82770250D01*
X146977000Y-82285500D01*
X146851097Y-81981542D01*
X146846555Y-81977000D01*
X149495314Y-81977000D01*
X149983758Y-82465445D01*
X149983758Y-82680000D01*
X150034451Y-82949410D01*
X150193672Y-83196846D01*
X150269907Y-83248935D01*
X150208154Y-83288672D01*
X150042157Y-83531615D01*
X149983758Y-83820000D01*
X149983758Y-84880000D01*
X150010665Y-85023000D01*
X150000000Y-85023000D01*
X149626119Y-85097369D01*
X149309157Y-85309156D01*
X148459157Y-86159157D01*
X148247370Y-86476118D01*
X148208859Y-86669724D01*
X148130590Y-86684451D01*
X147883154Y-86843672D01*
X147760624Y-87023000D01*
X147037404Y-87023000D01*
X146931328Y-86858154D01*
X146688385Y-86692157D01*
X146400000Y-86633758D01*
X144900000Y-86633758D01*
X144630590Y-86684451D01*
X144477510Y-86782955D01*
X144368458Y-86673903D01*
X144064501Y-86548000D01*
X143579750Y-86548000D01*
X143373000Y-86754750D01*
X143373000Y-87777000D01*
X143393000Y-87777000D01*
X143393000Y-88223000D01*
X143373000Y-88223000D01*
X143373000Y-88243000D01*
X142927000Y-88243000D01*
X142927000Y-88223000D01*
X141779750Y-88223000D01*
X141573000Y-88429750D01*
X141573000Y-88789500D01*
X141698903Y-89093458D01*
X141928445Y-89323000D01*
X140750000Y-89323000D01*
X140395252Y-89393564D01*
X140094512Y-89594512D01*
X139893564Y-89895252D01*
X139883227Y-89947219D01*
X139775223Y-90055223D01*
X139607095Y-90306845D01*
X139583250Y-90283000D01*
X139555500Y-90283000D01*
X139348461Y-90368758D01*
X139220000Y-90368758D01*
X139105962Y-90390216D01*
X139000000Y-90368758D01*
X138720000Y-90368758D01*
X138605962Y-90390216D01*
X138500000Y-90368758D01*
X138220000Y-90368758D01*
X138105962Y-90390216D01*
X138000000Y-90368758D01*
X137720000Y-90368758D01*
X137605962Y-90390216D01*
X137500000Y-90368758D01*
X137220000Y-90368758D01*
X136950590Y-90419451D01*
X136703154Y-90578672D01*
X136537157Y-90821615D01*
X136478758Y-91110000D01*
X136478758Y-92310000D01*
X136483170Y-92333450D01*
X136460000Y-92328758D01*
X135260000Y-92328758D01*
X134990590Y-92379451D01*
X134743154Y-92538672D01*
X134577157Y-92781615D01*
X134518758Y-93070000D01*
X134518758Y-93350000D01*
X134540216Y-93464038D01*
X134518758Y-93570000D01*
X134518758Y-93849204D01*
X134116773Y-93447219D01*
X134106436Y-93395253D01*
X133905488Y-93094512D01*
X132677000Y-91866024D01*
X132677000Y-90667046D01*
X132704867Y-90639228D01*
X132876804Y-90225158D01*
X132877195Y-89776809D01*
X132705981Y-89362440D01*
X132389228Y-89045133D01*
X131975158Y-88873196D01*
X131526809Y-88872805D01*
X131112440Y-89044019D01*
X130795133Y-89360772D01*
X130623196Y-89774842D01*
X130622805Y-90223191D01*
X130794019Y-90637560D01*
X130823000Y-90666592D01*
X130823000Y-92269998D01*
X130893564Y-92624746D01*
X131094512Y-92925486D01*
X131154779Y-92965755D01*
X131774345Y-93585321D01*
X131669011Y-93628844D01*
X131379860Y-93917492D01*
X131223179Y-94294821D01*
X131222822Y-94703387D01*
X131236348Y-94736121D01*
X131205179Y-94723179D01*
X130796613Y-94722822D01*
X130419011Y-94878844D01*
X130129860Y-95167492D01*
X129973179Y-95544821D01*
X129972822Y-95953387D01*
X130128844Y-96330989D01*
X130417492Y-96620140D01*
X130794821Y-96776821D01*
X131018074Y-96777016D01*
X130397545Y-97397545D01*
X130212855Y-97673954D01*
X130148000Y-98000000D01*
X130148000Y-101897090D01*
X129897090Y-102148000D01*
X121278310Y-102148000D01*
X120028642Y-100898332D01*
X120028642Y-100051750D01*
X121473000Y-100051750D01*
X121473000Y-100159500D01*
X121598903Y-100463458D01*
X121831542Y-100696097D01*
X122135499Y-100822000D01*
X122620250Y-100822000D01*
X122827000Y-100615250D01*
X122827000Y-99845000D01*
X123273000Y-99845000D01*
X123273000Y-100615250D01*
X123479750Y-100822000D01*
X123964501Y-100822000D01*
X124268458Y-100696097D01*
X124501097Y-100463458D01*
X124627000Y-100159500D01*
X124627000Y-100051750D01*
X126873000Y-100051750D01*
X126873000Y-100159500D01*
X126998903Y-100463458D01*
X127231542Y-100696097D01*
X127535499Y-100822000D01*
X128020250Y-100822000D01*
X128227000Y-100615250D01*
X128227000Y-99845000D01*
X128673000Y-99845000D01*
X128673000Y-100615250D01*
X128879750Y-100822000D01*
X129364501Y-100822000D01*
X129668458Y-100696097D01*
X129901097Y-100463458D01*
X130027000Y-100159500D01*
X130027000Y-100051750D01*
X129820250Y-99845000D01*
X128673000Y-99845000D01*
X128227000Y-99845000D01*
X127079750Y-99845000D01*
X126873000Y-100051750D01*
X124627000Y-100051750D01*
X124420250Y-99845000D01*
X123273000Y-99845000D01*
X122827000Y-99845000D01*
X121679750Y-99845000D01*
X121473000Y-100051750D01*
X120028642Y-100051750D01*
X120028642Y-99838000D01*
X119977949Y-99568590D01*
X119818728Y-99321154D01*
X119575785Y-99155157D01*
X119542655Y-99148448D01*
X119779516Y-98912000D01*
X119957090Y-98912000D01*
X120072545Y-99027455D01*
X120348954Y-99212145D01*
X120675000Y-99277000D01*
X121473000Y-99277000D01*
X121473000Y-99338250D01*
X121679750Y-99545000D01*
X122827000Y-99545000D01*
X122827000Y-99466242D01*
X123273000Y-99466242D01*
X123273000Y-99545000D01*
X124420250Y-99545000D01*
X124627000Y-99338250D01*
X124627000Y-99230500D01*
X124501097Y-98926542D01*
X124500542Y-98925987D01*
X124541242Y-98725000D01*
X124541242Y-98618976D01*
X124628844Y-98830989D01*
X124917492Y-99120140D01*
X125294821Y-99276821D01*
X125703387Y-99277178D01*
X126080989Y-99121156D01*
X126370140Y-98832508D01*
X126526821Y-98455179D01*
X126527178Y-98046613D01*
X126371156Y-97669011D01*
X126214169Y-97511750D01*
X126873000Y-97511750D01*
X126873000Y-97619500D01*
X126998903Y-97923458D01*
X126999458Y-97924013D01*
X126958758Y-98125000D01*
X126958758Y-98725000D01*
X126997375Y-98930231D01*
X126873000Y-99230500D01*
X126873000Y-99338250D01*
X127079750Y-99545000D01*
X128227000Y-99545000D01*
X128227000Y-99466242D01*
X128673000Y-99466242D01*
X128673000Y-99545000D01*
X129820250Y-99545000D01*
X130027000Y-99338250D01*
X130027000Y-99230500D01*
X129901097Y-98926542D01*
X129900542Y-98925987D01*
X129941242Y-98725000D01*
X129941242Y-98125000D01*
X129902625Y-97919769D01*
X130027000Y-97619500D01*
X130027000Y-97511750D01*
X129820250Y-97305000D01*
X128673000Y-97305000D01*
X128673000Y-97383758D01*
X128227000Y-97383758D01*
X128227000Y-97305000D01*
X127079750Y-97305000D01*
X126873000Y-97511750D01*
X126214169Y-97511750D01*
X126082508Y-97379860D01*
X125705179Y-97223179D01*
X125642678Y-97223124D01*
X124989777Y-96570223D01*
X124721479Y-96390952D01*
X124508130Y-96348514D01*
X124541242Y-96185000D01*
X124541242Y-95585000D01*
X124514335Y-95442000D01*
X124722832Y-95442000D01*
X124722822Y-95453387D01*
X124878844Y-95830989D01*
X125167492Y-96120140D01*
X125544821Y-96276821D01*
X125953387Y-96277178D01*
X126330989Y-96121156D01*
X126620140Y-95832508D01*
X126776821Y-95455179D01*
X126777178Y-95046613D01*
X126621156Y-94669011D01*
X126332508Y-94379860D01*
X125955179Y-94223179D01*
X125892679Y-94223124D01*
X125699777Y-94030223D01*
X125431479Y-93850952D01*
X125115000Y-93788000D01*
X124512284Y-93788000D01*
X124529749Y-93701750D01*
X126873000Y-93701750D01*
X126873000Y-93809500D01*
X126998903Y-94113458D01*
X126999458Y-94114013D01*
X126958758Y-94315000D01*
X126958758Y-94915000D01*
X127009451Y-95184410D01*
X127050372Y-95248003D01*
X127017157Y-95296615D01*
X126958758Y-95585000D01*
X126958758Y-96185000D01*
X126997375Y-96390231D01*
X126873000Y-96690500D01*
X126873000Y-96798250D01*
X127079750Y-97005000D01*
X128227000Y-97005000D01*
X128227000Y-96926242D01*
X128673000Y-96926242D01*
X128673000Y-97005000D01*
X129820250Y-97005000D01*
X130027000Y-96798250D01*
X130027000Y-96690500D01*
X129901097Y-96386542D01*
X129900542Y-96385987D01*
X129941242Y-96185000D01*
X129941242Y-95585000D01*
X129890549Y-95315590D01*
X129849628Y-95251997D01*
X129882843Y-95203385D01*
X129941242Y-94915000D01*
X129941242Y-94315000D01*
X129902625Y-94109769D01*
X130027000Y-93809500D01*
X130027000Y-93701750D01*
X129820250Y-93495000D01*
X128673000Y-93495000D01*
X128673000Y-93573758D01*
X128227000Y-93573758D01*
X128227000Y-93495000D01*
X127079750Y-93495000D01*
X126873000Y-93701750D01*
X124529749Y-93701750D01*
X124541242Y-93645000D01*
X124541242Y-93045000D01*
X124514335Y-92902000D01*
X124554887Y-92902000D01*
X124628844Y-93080989D01*
X124917492Y-93370140D01*
X125294821Y-93526821D01*
X125703387Y-93527178D01*
X126080989Y-93371156D01*
X126370140Y-93082508D01*
X126454021Y-92880500D01*
X126873000Y-92880500D01*
X126873000Y-92988250D01*
X127079750Y-93195000D01*
X128227000Y-93195000D01*
X128227000Y-93116242D01*
X128673000Y-93116242D01*
X128673000Y-93195000D01*
X129820250Y-93195000D01*
X130027000Y-92988250D01*
X130027000Y-92880500D01*
X129901097Y-92576542D01*
X129900542Y-92575987D01*
X129941242Y-92375000D01*
X129941242Y-91775000D01*
X129890549Y-91505590D01*
X129849628Y-91441997D01*
X129882843Y-91393385D01*
X129941242Y-91105000D01*
X129941242Y-90505000D01*
X129890549Y-90235590D01*
X129731328Y-89988154D01*
X129488385Y-89822157D01*
X129200000Y-89763758D01*
X127700000Y-89763758D01*
X127430590Y-89814451D01*
X127183154Y-89973672D01*
X127017157Y-90216615D01*
X126958758Y-90505000D01*
X126958758Y-91105000D01*
X127009451Y-91374410D01*
X127050372Y-91438003D01*
X127017157Y-91486615D01*
X126958758Y-91775000D01*
X126958758Y-92375000D01*
X126997375Y-92580231D01*
X126873000Y-92880500D01*
X126454021Y-92880500D01*
X126526821Y-92705179D01*
X126527178Y-92296613D01*
X126371156Y-91919011D01*
X126082508Y-91629860D01*
X125705179Y-91473179D01*
X125634176Y-91473117D01*
X125391479Y-91310952D01*
X125075000Y-91248000D01*
X124512284Y-91248000D01*
X124541242Y-91105000D01*
X124541242Y-90505000D01*
X124490549Y-90235590D01*
X124331328Y-89988154D01*
X124088385Y-89822157D01*
X124027000Y-89809726D01*
X124027000Y-88283976D01*
X124194734Y-88116242D01*
X125000000Y-88116242D01*
X125269410Y-88065549D01*
X125422490Y-87967045D01*
X125531542Y-88076097D01*
X125835499Y-88202000D01*
X126320250Y-88202000D01*
X126527000Y-87995250D01*
X126527000Y-86973000D01*
X126973000Y-86973000D01*
X126973000Y-87995250D01*
X127179750Y-88202000D01*
X127664501Y-88202000D01*
X127968458Y-88076097D01*
X128201097Y-87843458D01*
X128327000Y-87539500D01*
X128327000Y-87179750D01*
X128120250Y-86973000D01*
X126973000Y-86973000D01*
X126527000Y-86973000D01*
X126507000Y-86973000D01*
X126507000Y-86527000D01*
X126527000Y-86527000D01*
X126527000Y-86507000D01*
X126973000Y-86507000D01*
X126973000Y-86527000D01*
X128120250Y-86527000D01*
X128327000Y-86320250D01*
X128327000Y-85960500D01*
X128209571Y-85677000D01*
X129866024Y-85677000D01*
X130622839Y-86433815D01*
X130622805Y-86473191D01*
X130794019Y-86887560D01*
X131110772Y-87204867D01*
X131524842Y-87376804D01*
X131973191Y-87377195D01*
X132387560Y-87205981D01*
X132704867Y-86889228D01*
X132876804Y-86475158D01*
X132877061Y-86179750D01*
X135298000Y-86179750D01*
X135298000Y-86664501D01*
X135423903Y-86968458D01*
X135656542Y-87201097D01*
X135960500Y-87327000D01*
X136320250Y-87327000D01*
X136527000Y-87120250D01*
X136527000Y-85973000D01*
X136973000Y-85973000D01*
X136973000Y-87120250D01*
X137179750Y-87327000D01*
X137539500Y-87327000D01*
X137843458Y-87201097D01*
X138076097Y-86968458D01*
X138202000Y-86664501D01*
X138202000Y-86179750D01*
X137995250Y-85973000D01*
X136973000Y-85973000D01*
X136527000Y-85973000D01*
X135504750Y-85973000D01*
X135298000Y-86179750D01*
X132877061Y-86179750D01*
X132877195Y-86026809D01*
X132705981Y-85612440D01*
X132389228Y-85295133D01*
X131975158Y-85123196D01*
X131934136Y-85123160D01*
X130905488Y-84094512D01*
X130873293Y-84073000D01*
X130604748Y-83893564D01*
X130250000Y-83823000D01*
X126586176Y-83823000D01*
X126626804Y-83725158D01*
X126627195Y-83276809D01*
X126455981Y-82862440D01*
X126185256Y-82591242D01*
X127000000Y-82591242D01*
X127269410Y-82540549D01*
X127422490Y-82442045D01*
X127531542Y-82551097D01*
X127835499Y-82677000D01*
X128170250Y-82677000D01*
X128377000Y-82470250D01*
X128377000Y-81473000D01*
X128823000Y-81473000D01*
X128823000Y-82470250D01*
X129029750Y-82677000D01*
X129364501Y-82677000D01*
X129668458Y-82551097D01*
X129901097Y-82318458D01*
X130027000Y-82014500D01*
X130027000Y-81679750D01*
X129820250Y-81473000D01*
X128823000Y-81473000D01*
X128377000Y-81473000D01*
X128357000Y-81473000D01*
X128357000Y-81027000D01*
X128377000Y-81027000D01*
X128377000Y-80029750D01*
X128823000Y-80029750D01*
X128823000Y-81027000D01*
X129820250Y-81027000D01*
X130027000Y-80820250D01*
X130027000Y-80485500D01*
X129901097Y-80181542D01*
X129668458Y-79948903D01*
X129364501Y-79823000D01*
X129029750Y-79823000D01*
X128823000Y-80029750D01*
X128377000Y-80029750D01*
X128170250Y-79823000D01*
X127835499Y-79823000D01*
X127531542Y-79948903D01*
X127421995Y-80058450D01*
X127288385Y-79967157D01*
X127000000Y-79908758D01*
X125800000Y-79908758D01*
X125530590Y-79959451D01*
X125283154Y-80118672D01*
X125117157Y-80361615D01*
X125079413Y-80548000D01*
X121372049Y-80548000D01*
X121340549Y-80380590D01*
X121181328Y-80133154D01*
X120938385Y-79967157D01*
X120650000Y-79908758D01*
X119350000Y-79908758D01*
X119080590Y-79959451D01*
X118833154Y-80118672D01*
X118667157Y-80361615D01*
X118608758Y-80650000D01*
X118608758Y-82150000D01*
X118659451Y-82419410D01*
X118818672Y-82666846D01*
X118940130Y-82749835D01*
X118833154Y-82818672D01*
X118667157Y-83061615D01*
X118608758Y-83350000D01*
X118608758Y-84109555D01*
X117834557Y-84883757D01*
X117622770Y-85200718D01*
X117548400Y-85574600D01*
X117548400Y-86771367D01*
X117263823Y-87055448D01*
X117036659Y-87602520D01*
X117036142Y-88194881D01*
X117262351Y-88742349D01*
X117680848Y-89161577D01*
X117723293Y-89179202D01*
X117696192Y-89295423D01*
X118525400Y-90124630D01*
X119354608Y-89295423D01*
X119327608Y-89179635D01*
X119367749Y-89163049D01*
X119786977Y-88744552D01*
X120014141Y-88197480D01*
X120014658Y-87605119D01*
X119788449Y-87057651D01*
X119502400Y-86771102D01*
X119502400Y-85979286D01*
X119890444Y-85591242D01*
X120650000Y-85591242D01*
X120919410Y-85540549D01*
X121166846Y-85381328D01*
X121332843Y-85138385D01*
X121345274Y-85077000D01*
X122650000Y-85077000D01*
X123023882Y-85002630D01*
X123340843Y-84790843D01*
X123654686Y-84477000D01*
X124462024Y-84477000D01*
X123594512Y-85344512D01*
X123568289Y-85383758D01*
X123500000Y-85383758D01*
X123230590Y-85434451D01*
X122983154Y-85593672D01*
X122817157Y-85836615D01*
X122758758Y-86125000D01*
X122758758Y-86930266D01*
X122572254Y-87116770D01*
X122359157Y-87259157D01*
X122147370Y-87576118D01*
X122073000Y-87950000D01*
X122073000Y-89806471D01*
X122030590Y-89814451D01*
X121783154Y-89973672D01*
X121617157Y-90216615D01*
X121558758Y-90505000D01*
X121558758Y-91105000D01*
X121609451Y-91374410D01*
X121650372Y-91438003D01*
X121617157Y-91486615D01*
X121558758Y-91775000D01*
X121558758Y-92375000D01*
X121580961Y-92493000D01*
X120197910Y-92493000D01*
X120082455Y-92377545D01*
X119813247Y-92197666D01*
X119788449Y-92137651D01*
X119369952Y-91718423D01*
X119327507Y-91700798D01*
X119354608Y-91584577D01*
X118525400Y-90755370D01*
X117696192Y-91584577D01*
X117723192Y-91700365D01*
X117683051Y-91716951D01*
X117263823Y-92135448D01*
X117036659Y-92682520D01*
X117036142Y-93274881D01*
X117262351Y-93822349D01*
X117680848Y-94241577D01*
X117700505Y-94249739D01*
X117683051Y-94256951D01*
X117263823Y-94675448D01*
X117036659Y-95222520D01*
X117036142Y-95814881D01*
X117262351Y-96362349D01*
X117680848Y-96781577D01*
X117700505Y-96789739D01*
X117683051Y-96796951D01*
X117263823Y-97215448D01*
X117036659Y-97762520D01*
X117036142Y-98354881D01*
X117262351Y-98902349D01*
X117504964Y-99145386D01*
X117493990Y-99147451D01*
X117246554Y-99306672D01*
X117080557Y-99549615D01*
X117022158Y-99838000D01*
X111972000Y-99838000D01*
X111972000Y-90282226D01*
X116912972Y-90282226D01*
X116975333Y-90911285D01*
X117096088Y-91202813D01*
X117380823Y-91269208D01*
X118210030Y-90440000D01*
X118840770Y-90440000D01*
X119669977Y-91269208D01*
X119954712Y-91202813D01*
X120137828Y-90597774D01*
X120075467Y-89968715D01*
X119954712Y-89677187D01*
X119669977Y-89610792D01*
X118840770Y-90440000D01*
X118210030Y-90440000D01*
X117380823Y-89610792D01*
X117096088Y-89677187D01*
X116912972Y-90282226D01*
X111972000Y-90282226D01*
X111972000Y-83710838D01*
X112422597Y-83710838D01*
X112776115Y-84566418D01*
X113430139Y-85221585D01*
X114285100Y-85576596D01*
X115210838Y-85577403D01*
X116066418Y-85223885D01*
X116721585Y-84569861D01*
X117076596Y-83714900D01*
X117077403Y-82789162D01*
X116723885Y-81933582D01*
X116069861Y-81278415D01*
X115214900Y-80923404D01*
X114289162Y-80922597D01*
X113433582Y-81276115D01*
X112778415Y-81930139D01*
X112423404Y-82785100D01*
X112422597Y-83710838D01*
X111972000Y-83710838D01*
X111972000Y-79252000D01*
X170058000Y-79252000D01*
X170058000Y-108128000D01*
X170058000Y-108128000D01*
G37*
X170058000Y-108128000D02*
X111972000Y-108128000D01*
X111972000Y-105710838D01*
X112422597Y-105710838D01*
X112776115Y-106566418D01*
X113430139Y-107221585D01*
X114285100Y-107576596D01*
X115210838Y-107577403D01*
X116066418Y-107223885D01*
X116721585Y-106569861D01*
X117076596Y-105714900D01*
X117077403Y-104789162D01*
X116825600Y-104179750D01*
X135048000Y-104179750D01*
X135048000Y-104664501D01*
X135173903Y-104968458D01*
X135406542Y-105201097D01*
X135710500Y-105327000D01*
X136070250Y-105327000D01*
X136277000Y-105120250D01*
X136277000Y-103973000D01*
X136723000Y-103973000D01*
X136723000Y-105120250D01*
X136929750Y-105327000D01*
X137289500Y-105327000D01*
X137593458Y-105201097D01*
X137826097Y-104968458D01*
X137952000Y-104664501D01*
X137952000Y-104179750D01*
X137745250Y-103973000D01*
X136723000Y-103973000D01*
X136277000Y-103973000D01*
X135254750Y-103973000D01*
X135048000Y-104179750D01*
X116825600Y-104179750D01*
X116723885Y-103933582D01*
X116069861Y-103278415D01*
X115214900Y-102923404D01*
X114289162Y-102922597D01*
X113433582Y-103276115D01*
X112778415Y-103930139D01*
X112423404Y-104785100D01*
X112422597Y-105710838D01*
X111972000Y-105710838D01*
X111972000Y-99838000D01*
X117022158Y-99838000D01*
X117022158Y-101362000D01*
X117072851Y-101631410D01*
X117232072Y-101878846D01*
X117475015Y-102044843D01*
X117763400Y-102103242D01*
X118823732Y-102103242D01*
X120322945Y-103602455D01*
X120599354Y-103787145D01*
X120925400Y-103852000D01*
X130250000Y-103852000D01*
X130576046Y-103787145D01*
X130852455Y-103602455D01*
X131602455Y-102852455D01*
X131787145Y-102576046D01*
X131852000Y-102250000D01*
X131852000Y-98352910D01*
X133142910Y-97062000D01*
X133768446Y-97062000D01*
X133607571Y-97222875D01*
X133546613Y-97222822D01*
X133169011Y-97378844D01*
X132879860Y-97667492D01*
X132723179Y-98044821D01*
X132722822Y-98453387D01*
X132878844Y-98830989D01*
X133167492Y-99120140D01*
X133544821Y-99276821D01*
X133953387Y-99277178D01*
X134330989Y-99121156D01*
X134620140Y-98832508D01*
X134776821Y-98455179D01*
X134776876Y-98392678D01*
X135578312Y-97591242D01*
X136460000Y-97591242D01*
X136483450Y-97586830D01*
X136478758Y-97610000D01*
X136478758Y-98810000D01*
X136529451Y-99079410D01*
X136688672Y-99326846D01*
X136931615Y-99492843D01*
X137220000Y-99551242D01*
X137500000Y-99551242D01*
X137614038Y-99529784D01*
X137720000Y-99551242D01*
X137848461Y-99551242D01*
X137988209Y-99609127D01*
X137891400Y-99842268D01*
X137891043Y-100250834D01*
X137951851Y-100398000D01*
X137847049Y-100398000D01*
X137815549Y-100230590D01*
X137656328Y-99983154D01*
X137413385Y-99817157D01*
X137125000Y-99758758D01*
X135875000Y-99758758D01*
X135605590Y-99809451D01*
X135358154Y-99968672D01*
X135192157Y-100211615D01*
X135133758Y-100500000D01*
X135133758Y-102000000D01*
X135184451Y-102269410D01*
X135282955Y-102422490D01*
X135173903Y-102531542D01*
X135048000Y-102835499D01*
X135048000Y-103320250D01*
X135254750Y-103527000D01*
X136277000Y-103527000D01*
X136277000Y-103507000D01*
X136723000Y-103507000D01*
X136723000Y-103527000D01*
X137745250Y-103527000D01*
X137952000Y-103320250D01*
X137952000Y-102835499D01*
X137826097Y-102531542D01*
X137716550Y-102421995D01*
X137807843Y-102288385D01*
X137845587Y-102102000D01*
X138750000Y-102102000D01*
X139076046Y-102037145D01*
X139352455Y-101852455D01*
X140462455Y-100742455D01*
X140647145Y-100466046D01*
X140666057Y-100370967D01*
X140897545Y-100602455D01*
X141173954Y-100787145D01*
X141500000Y-100852000D01*
X142901471Y-100852000D01*
X142909451Y-100894410D01*
X143068672Y-101141846D01*
X143311615Y-101307843D01*
X143457670Y-101337420D01*
X141736332Y-103058758D01*
X139700000Y-103058758D01*
X139430590Y-103109451D01*
X139183154Y-103268672D01*
X139017157Y-103511615D01*
X138958758Y-103800000D01*
X138958758Y-105800000D01*
X139009451Y-106069410D01*
X139168672Y-106316846D01*
X139411615Y-106482843D01*
X139700000Y-106541242D01*
X144200000Y-106541242D01*
X144469410Y-106490549D01*
X144716846Y-106331328D01*
X144882843Y-106088385D01*
X144941242Y-105800000D01*
X144941242Y-103800000D01*
X144890549Y-103530590D01*
X144731328Y-103283154D01*
X144488385Y-103117157D01*
X144200000Y-103058758D01*
X144146152Y-103058758D01*
X144952455Y-102252455D01*
X145137145Y-101976046D01*
X145202000Y-101650000D01*
X145202000Y-101347049D01*
X145369410Y-101315549D01*
X145522490Y-101217045D01*
X145631542Y-101326097D01*
X145935499Y-101452000D01*
X146420250Y-101452000D01*
X146627000Y-101245250D01*
X146627000Y-100223000D01*
X147073000Y-100223000D01*
X147073000Y-101245250D01*
X147279750Y-101452000D01*
X147764501Y-101452000D01*
X148068458Y-101326097D01*
X148301097Y-101093458D01*
X148427000Y-100789500D01*
X148427000Y-100429750D01*
X148220250Y-100223000D01*
X147073000Y-100223000D01*
X146627000Y-100223000D01*
X146607000Y-100223000D01*
X146607000Y-99777000D01*
X146627000Y-99777000D01*
X146627000Y-98754750D01*
X147073000Y-98754750D01*
X147073000Y-99777000D01*
X148220250Y-99777000D01*
X148427000Y-99570250D01*
X148427000Y-99210500D01*
X148301097Y-98906542D01*
X148068458Y-98673903D01*
X147764501Y-98548000D01*
X147279750Y-98548000D01*
X147073000Y-98754750D01*
X146627000Y-98754750D01*
X146420250Y-98548000D01*
X145935499Y-98548000D01*
X145631542Y-98673903D01*
X145521995Y-98783450D01*
X145388385Y-98692157D01*
X145100000Y-98633758D01*
X143600000Y-98633758D01*
X143330590Y-98684451D01*
X143083154Y-98843672D01*
X142917157Y-99086615D01*
X142904726Y-99148000D01*
X141852910Y-99148000D01*
X141712000Y-99007090D01*
X141712000Y-98954402D01*
X141741242Y-98810000D01*
X141741242Y-97610000D01*
X141736830Y-97586550D01*
X141760000Y-97591242D01*
X142960000Y-97591242D01*
X143115408Y-97562000D01*
X147107090Y-97562000D01*
X149058758Y-99513668D01*
X149058758Y-100425000D01*
X149109451Y-100694410D01*
X149268672Y-100941846D01*
X149511615Y-101107843D01*
X149698000Y-101145587D01*
X149698000Y-103058758D01*
X148200000Y-103058758D01*
X147930590Y-103109451D01*
X147683154Y-103268672D01*
X147517157Y-103511615D01*
X147458758Y-103800000D01*
X147458758Y-105800000D01*
X147509451Y-106069410D01*
X147668672Y-106316846D01*
X147911615Y-106482843D01*
X148200000Y-106541242D01*
X152700000Y-106541242D01*
X152969410Y-106490549D01*
X153216846Y-106331328D01*
X153382843Y-106088385D01*
X153441242Y-105800000D01*
X153441242Y-105710838D01*
X164422597Y-105710838D01*
X164776115Y-106566418D01*
X165430139Y-107221585D01*
X166285100Y-107576596D01*
X167210838Y-107577403D01*
X168066418Y-107223885D01*
X168721585Y-106569861D01*
X169076596Y-105714900D01*
X169077403Y-104789162D01*
X168723885Y-103933582D01*
X168069861Y-103278415D01*
X167214900Y-102923404D01*
X166289162Y-102922597D01*
X165433582Y-103276115D01*
X164778415Y-103930139D01*
X164423404Y-104785100D01*
X164422597Y-105710838D01*
X153441242Y-105710838D01*
X153441242Y-103800000D01*
X153390549Y-103530590D01*
X153231328Y-103283154D01*
X152988385Y-103117157D01*
X152700000Y-103058758D01*
X151402000Y-103058758D01*
X151402000Y-101147049D01*
X151569410Y-101115549D01*
X151722490Y-101017045D01*
X151831542Y-101126097D01*
X152135499Y-101252000D01*
X152620250Y-101252000D01*
X152827000Y-101045250D01*
X152827000Y-100023000D01*
X153273000Y-100023000D01*
X153273000Y-101045250D01*
X153479750Y-101252000D01*
X153964501Y-101252000D01*
X153966833Y-101251034D01*
X157192614Y-101251034D01*
X157530940Y-102069846D01*
X158156858Y-102696858D01*
X158975079Y-103036613D01*
X159861034Y-103037386D01*
X160679846Y-102699060D01*
X161306858Y-102073142D01*
X161646613Y-101254921D01*
X161647386Y-100368966D01*
X161309060Y-99550154D01*
X160683142Y-98923142D01*
X159864921Y-98583387D01*
X158978966Y-98582614D01*
X158160154Y-98920940D01*
X157533142Y-99546858D01*
X157193387Y-100365079D01*
X157192614Y-101251034D01*
X153966833Y-101251034D01*
X154268458Y-101126097D01*
X154501097Y-100893458D01*
X154627000Y-100589500D01*
X154627000Y-100229750D01*
X154420250Y-100023000D01*
X153273000Y-100023000D01*
X152827000Y-100023000D01*
X152807000Y-100023000D01*
X152807000Y-99577000D01*
X152827000Y-99577000D01*
X152827000Y-98554750D01*
X153273000Y-98554750D01*
X153273000Y-99577000D01*
X154420250Y-99577000D01*
X154627000Y-99370250D01*
X154627000Y-99010500D01*
X154501097Y-98706542D01*
X154268458Y-98473903D01*
X153964501Y-98348000D01*
X153479750Y-98348000D01*
X153273000Y-98554750D01*
X152827000Y-98554750D01*
X152620250Y-98348000D01*
X152135499Y-98348000D01*
X151831542Y-98473903D01*
X151721995Y-98583450D01*
X151588385Y-98492157D01*
X151300000Y-98433758D01*
X150388668Y-98433758D01*
X148062455Y-96107545D01*
X147884503Y-95988641D01*
X148114777Y-95834777D01*
X148868312Y-95081242D01*
X149940000Y-95081242D01*
X150209410Y-95030549D01*
X150456846Y-94871328D01*
X150539835Y-94749870D01*
X150608672Y-94856846D01*
X150851615Y-95022843D01*
X151140000Y-95081242D01*
X152640000Y-95081242D01*
X152909410Y-95030549D01*
X153156846Y-94871328D01*
X153322843Y-94628385D01*
X153340336Y-94542000D01*
X155273146Y-94542000D01*
X155272744Y-95002505D01*
X155497130Y-95545560D01*
X155912254Y-95961409D01*
X155956463Y-95979766D01*
X155914440Y-95997130D01*
X155498591Y-96412254D01*
X155273257Y-96954918D01*
X155272744Y-97542505D01*
X155497130Y-98085560D01*
X155912254Y-98501409D01*
X156454918Y-98726743D01*
X157042505Y-98727256D01*
X157585560Y-98502870D01*
X158001409Y-98087746D01*
X158226743Y-97545082D01*
X158227256Y-96957495D01*
X158002870Y-96414440D01*
X157587746Y-95998591D01*
X157543537Y-95980234D01*
X157585560Y-95962870D01*
X158001409Y-95547746D01*
X158226743Y-95005082D01*
X158227256Y-94417495D01*
X158002870Y-93874440D01*
X157823794Y-93695051D01*
X158001409Y-93517746D01*
X158226743Y-92975082D01*
X158227256Y-92387495D01*
X158002870Y-91844440D01*
X157587746Y-91428591D01*
X157540013Y-91408770D01*
X157570445Y-91275815D01*
X156750000Y-90455370D01*
X156735858Y-90469512D01*
X156420488Y-90154142D01*
X156434630Y-90140000D01*
X157065370Y-90140000D01*
X157885815Y-90960445D01*
X158169320Y-90895553D01*
X158350418Y-90294890D01*
X158287867Y-89670646D01*
X158169320Y-89384447D01*
X157885815Y-89319555D01*
X157065370Y-90140000D01*
X156434630Y-90140000D01*
X155614185Y-89319555D01*
X155330680Y-89384447D01*
X155149582Y-89985110D01*
X155180934Y-90298000D01*
X153343233Y-90298000D01*
X153330549Y-90230590D01*
X153171328Y-89983154D01*
X152928385Y-89817157D01*
X152640000Y-89758758D01*
X151140000Y-89758758D01*
X150870590Y-89809451D01*
X150623154Y-89968672D01*
X150540165Y-90090130D01*
X150471328Y-89983154D01*
X150228385Y-89817157D01*
X149940000Y-89758758D01*
X148440000Y-89758758D01*
X148170590Y-89809451D01*
X147923154Y-89968672D01*
X147757157Y-90211615D01*
X147714351Y-90423000D01*
X146875573Y-90423000D01*
X146832508Y-90379860D01*
X146455179Y-90223179D01*
X146046613Y-90222822D01*
X145669011Y-90378844D01*
X145379860Y-90667492D01*
X145223179Y-91044821D01*
X145222822Y-91453387D01*
X145378844Y-91830989D01*
X145667492Y-92120140D01*
X146044821Y-92276821D01*
X146453387Y-92277178D01*
X146830989Y-92121156D01*
X146875222Y-92077000D01*
X147754335Y-92077000D01*
X147908672Y-92316846D01*
X148060278Y-92420435D01*
X147923154Y-92508672D01*
X147757157Y-92751615D01*
X147698758Y-93040000D01*
X147698758Y-93911688D01*
X147260490Y-94349956D01*
X146955179Y-94223179D01*
X146546613Y-94222822D01*
X146169011Y-94378844D01*
X145879860Y-94667492D01*
X145723179Y-95044821D01*
X145722822Y-95453387D01*
X145878844Y-95830989D01*
X145905808Y-95858000D01*
X143699622Y-95858000D01*
X143701242Y-95850000D01*
X143701242Y-95570000D01*
X143679784Y-95455962D01*
X143701242Y-95350000D01*
X143701242Y-95070000D01*
X143679784Y-94955962D01*
X143701242Y-94850000D01*
X143701242Y-94570000D01*
X143679784Y-94455962D01*
X143701242Y-94350000D01*
X143701242Y-94070000D01*
X143679784Y-93955962D01*
X143701242Y-93850000D01*
X143701242Y-93570000D01*
X143679784Y-93455962D01*
X143701242Y-93350000D01*
X143701242Y-93070000D01*
X143650549Y-92800590D01*
X143491328Y-92553154D01*
X143248385Y-92387157D01*
X142960000Y-92328758D01*
X141760000Y-92328758D01*
X141736550Y-92333170D01*
X141741242Y-92310000D01*
X141741242Y-91177000D01*
X143400000Y-91177000D01*
X143754748Y-91106436D01*
X144055488Y-90905488D01*
X145594734Y-89366242D01*
X146400000Y-89366242D01*
X146669410Y-89315549D01*
X146916846Y-89156328D01*
X147039376Y-88977000D01*
X147762596Y-88977000D01*
X147868672Y-89141846D01*
X148111615Y-89307843D01*
X148400000Y-89366242D01*
X149900000Y-89366242D01*
X150169410Y-89315549D01*
X150322490Y-89217045D01*
X150431542Y-89326097D01*
X150735499Y-89452000D01*
X151220250Y-89452000D01*
X151427000Y-89245250D01*
X151427000Y-88223000D01*
X151873000Y-88223000D01*
X151873000Y-89245250D01*
X152079750Y-89452000D01*
X152564501Y-89452000D01*
X152868458Y-89326097D01*
X153101097Y-89093458D01*
X153138074Y-89004185D01*
X155929555Y-89004185D01*
X156750000Y-89824630D01*
X157570445Y-89004185D01*
X157505553Y-88720680D01*
X156904890Y-88539582D01*
X156280646Y-88602133D01*
X155994447Y-88720680D01*
X155929555Y-89004185D01*
X153138074Y-89004185D01*
X153227000Y-88789500D01*
X153227000Y-88429750D01*
X153020250Y-88223000D01*
X151873000Y-88223000D01*
X151427000Y-88223000D01*
X151407000Y-88223000D01*
X151407000Y-87777000D01*
X151427000Y-87777000D01*
X151427000Y-87757000D01*
X151873000Y-87757000D01*
X151873000Y-87777000D01*
X153020250Y-87777000D01*
X153227000Y-87570250D01*
X153227000Y-87531034D01*
X157192614Y-87531034D01*
X157530940Y-88349846D01*
X158156858Y-88976858D01*
X158975079Y-89316613D01*
X159861034Y-89317386D01*
X160679846Y-88979060D01*
X161306858Y-88353142D01*
X161646613Y-87534921D01*
X161647386Y-86648966D01*
X161309060Y-85830154D01*
X160683142Y-85203142D01*
X159864921Y-84863387D01*
X158978966Y-84862614D01*
X158160154Y-85200940D01*
X157533142Y-85826858D01*
X157193387Y-86645079D01*
X157192614Y-87531034D01*
X153227000Y-87531034D01*
X153227000Y-87210500D01*
X153101097Y-86906542D01*
X152868458Y-86673903D01*
X152564501Y-86548000D01*
X152133686Y-86548000D01*
X153060445Y-85621242D01*
X153275000Y-85621242D01*
X153544410Y-85570549D01*
X153791846Y-85411328D01*
X153957843Y-85168385D01*
X154016242Y-84880000D01*
X154016242Y-83820000D01*
X153965549Y-83550590D01*
X153806328Y-83303154D01*
X153730093Y-83251065D01*
X153791846Y-83211328D01*
X153849465Y-83127000D01*
X155273000Y-83127000D01*
X155273000Y-84095314D01*
X154723470Y-84644844D01*
X154362440Y-84794019D01*
X154045133Y-85110772D01*
X153873196Y-85524842D01*
X153872805Y-85973191D01*
X154044019Y-86387560D01*
X154360772Y-86704867D01*
X154774842Y-86876804D01*
X155223191Y-86877195D01*
X155637560Y-86705981D01*
X155954867Y-86389228D01*
X156105697Y-86025989D01*
X156940843Y-85190843D01*
X156986043Y-85123196D01*
X157152630Y-84873882D01*
X157227000Y-84500000D01*
X157227000Y-82710838D01*
X164422597Y-82710838D01*
X164776115Y-83566418D01*
X165430139Y-84221585D01*
X166285100Y-84576596D01*
X167210838Y-84577403D01*
X168066418Y-84223885D01*
X168721585Y-83569861D01*
X169076596Y-82714900D01*
X169077403Y-81789162D01*
X168723885Y-80933582D01*
X168069861Y-80278415D01*
X167214900Y-79923404D01*
X166289162Y-79922597D01*
X165433582Y-80276115D01*
X164778415Y-80930139D01*
X164423404Y-81785100D01*
X164422597Y-82710838D01*
X157227000Y-82710838D01*
X157227000Y-82500000D01*
X157152630Y-82126118D01*
X157047428Y-81968672D01*
X156940844Y-81809157D01*
X156590843Y-81459157D01*
X156463220Y-81373882D01*
X156273882Y-81247370D01*
X155900000Y-81173000D01*
X154921036Y-81173000D01*
X154954867Y-81139228D01*
X155126804Y-80725158D01*
X155127195Y-80276809D01*
X154955981Y-79862440D01*
X154639228Y-79545133D01*
X154225158Y-79373196D01*
X153776809Y-79372805D01*
X153362440Y-79544019D01*
X153045133Y-79860772D01*
X152894303Y-80224011D01*
X152259157Y-80859157D01*
X152170684Y-80991566D01*
X152162500Y-80999750D01*
X152162500Y-81003814D01*
X152047370Y-81176118D01*
X152046945Y-81178253D01*
X151999415Y-81247815D01*
X151906328Y-81103154D01*
X151837500Y-81056126D01*
X151837500Y-80999750D01*
X151630750Y-80793000D01*
X151510500Y-80793000D01*
X151303461Y-80878758D01*
X151160444Y-80878758D01*
X150590843Y-80309157D01*
X150539487Y-80274842D01*
X150273882Y-80097370D01*
X149900000Y-80023000D01*
X143000000Y-80023000D01*
X142626118Y-80097370D01*
X142572564Y-80133154D01*
X142309156Y-80309157D01*
X141109157Y-81509157D01*
X140897370Y-81826118D01*
X140856704Y-82030560D01*
X140767157Y-82161615D01*
X140744601Y-82273000D01*
X138073529Y-82273000D01*
X138065549Y-82230590D01*
X137906328Y-81983154D01*
X137663385Y-81817157D01*
X137375000Y-81758758D01*
X136125000Y-81758758D01*
X135855590Y-81809451D01*
X135608154Y-81968672D01*
X135442157Y-82211615D01*
X135429726Y-82273000D01*
X132500000Y-82273000D01*
X132126118Y-82347370D01*
X132087972Y-82372858D01*
X132026809Y-82372805D01*
X131612440Y-82544019D01*
X131295133Y-82860772D01*
X131123196Y-83274842D01*
X131122805Y-83723191D01*
X131294019Y-84137560D01*
X131610772Y-84454867D01*
X132024842Y-84626804D01*
X132473191Y-84627195D01*
X132887560Y-84455981D01*
X133116941Y-84227000D01*
X135426471Y-84227000D01*
X135434451Y-84269410D01*
X135532955Y-84422490D01*
X135423903Y-84531542D01*
X135298000Y-84835499D01*
X135298000Y-85320250D01*
X135504750Y-85527000D01*
X136527000Y-85527000D01*
X136527000Y-85507000D01*
X136973000Y-85507000D01*
X136973000Y-85527000D01*
X137995250Y-85527000D01*
X138202000Y-85320250D01*
X138202000Y-84835499D01*
X138076097Y-84531542D01*
X137966550Y-84421995D01*
X138057843Y-84288385D01*
X138070274Y-84227000D01*
X140764335Y-84227000D01*
X140823000Y-84318168D01*
X140823000Y-85050000D01*
X140897370Y-85423882D01*
X141097362Y-85723191D01*
X141109157Y-85740843D01*
X141144844Y-85776530D01*
X141294019Y-86137560D01*
X141610772Y-86454867D01*
X142024842Y-86626804D01*
X142045206Y-86626822D01*
X141931542Y-86673903D01*
X141698903Y-86906542D01*
X141573000Y-87210500D01*
X141573000Y-87570250D01*
X141779750Y-87777000D01*
X142927000Y-87777000D01*
X142927000Y-86754750D01*
X142720250Y-86548000D01*
X142664857Y-86548000D01*
X142887560Y-86455981D01*
X143204867Y-86139228D01*
X143376804Y-85725158D01*
X143377195Y-85276809D01*
X143205981Y-84862440D01*
X143035082Y-84691242D01*
X143400000Y-84691242D01*
X143669410Y-84640549D01*
X143700797Y-84620352D01*
X143731542Y-84651097D01*
X144035499Y-84777000D01*
X144745250Y-84777000D01*
X144952000Y-84570250D01*
X144952000Y-83423000D01*
X145398000Y-83423000D01*
X145398000Y-84570250D01*
X145604750Y-84777000D01*
X146314501Y-84777000D01*
X146618458Y-84651097D01*
X146851097Y-84418458D01*
X146977000Y-84114500D01*
X146977000Y-83629750D01*
X146770250Y-83423000D01*
X145398000Y-83423000D01*
X144952000Y-83423000D01*
X144932000Y-83423000D01*
X144932000Y-82977000D01*
X144952000Y-82977000D01*
X144952000Y-82957000D01*
X145398000Y-82957000D01*
X145398000Y-82977000D01*
X146770250Y-82977000D01*
X146977000Y-82770250D01*
X146977000Y-82285500D01*
X146851097Y-81981542D01*
X146846555Y-81977000D01*
X149495314Y-81977000D01*
X149983758Y-82465445D01*
X149983758Y-82680000D01*
X150034451Y-82949410D01*
X150193672Y-83196846D01*
X150269907Y-83248935D01*
X150208154Y-83288672D01*
X150042157Y-83531615D01*
X149983758Y-83820000D01*
X149983758Y-84880000D01*
X150010665Y-85023000D01*
X150000000Y-85023000D01*
X149626119Y-85097369D01*
X149309157Y-85309156D01*
X148459157Y-86159157D01*
X148247370Y-86476118D01*
X148208859Y-86669724D01*
X148130590Y-86684451D01*
X147883154Y-86843672D01*
X147760624Y-87023000D01*
X147037404Y-87023000D01*
X146931328Y-86858154D01*
X146688385Y-86692157D01*
X146400000Y-86633758D01*
X144900000Y-86633758D01*
X144630590Y-86684451D01*
X144477510Y-86782955D01*
X144368458Y-86673903D01*
X144064501Y-86548000D01*
X143579750Y-86548000D01*
X143373000Y-86754750D01*
X143373000Y-87777000D01*
X143393000Y-87777000D01*
X143393000Y-88223000D01*
X143373000Y-88223000D01*
X143373000Y-88243000D01*
X142927000Y-88243000D01*
X142927000Y-88223000D01*
X141779750Y-88223000D01*
X141573000Y-88429750D01*
X141573000Y-88789500D01*
X141698903Y-89093458D01*
X141928445Y-89323000D01*
X140750000Y-89323000D01*
X140395252Y-89393564D01*
X140094512Y-89594512D01*
X139893564Y-89895252D01*
X139883227Y-89947219D01*
X139775223Y-90055223D01*
X139607095Y-90306845D01*
X139583250Y-90283000D01*
X139555500Y-90283000D01*
X139348461Y-90368758D01*
X139220000Y-90368758D01*
X139105962Y-90390216D01*
X139000000Y-90368758D01*
X138720000Y-90368758D01*
X138605962Y-90390216D01*
X138500000Y-90368758D01*
X138220000Y-90368758D01*
X138105962Y-90390216D01*
X138000000Y-90368758D01*
X137720000Y-90368758D01*
X137605962Y-90390216D01*
X137500000Y-90368758D01*
X137220000Y-90368758D01*
X136950590Y-90419451D01*
X136703154Y-90578672D01*
X136537157Y-90821615D01*
X136478758Y-91110000D01*
X136478758Y-92310000D01*
X136483170Y-92333450D01*
X136460000Y-92328758D01*
X135260000Y-92328758D01*
X134990590Y-92379451D01*
X134743154Y-92538672D01*
X134577157Y-92781615D01*
X134518758Y-93070000D01*
X134518758Y-93350000D01*
X134540216Y-93464038D01*
X134518758Y-93570000D01*
X134518758Y-93849204D01*
X134116773Y-93447219D01*
X134106436Y-93395253D01*
X133905488Y-93094512D01*
X132677000Y-91866024D01*
X132677000Y-90667046D01*
X132704867Y-90639228D01*
X132876804Y-90225158D01*
X132877195Y-89776809D01*
X132705981Y-89362440D01*
X132389228Y-89045133D01*
X131975158Y-88873196D01*
X131526809Y-88872805D01*
X131112440Y-89044019D01*
X130795133Y-89360772D01*
X130623196Y-89774842D01*
X130622805Y-90223191D01*
X130794019Y-90637560D01*
X130823000Y-90666592D01*
X130823000Y-92269998D01*
X130893564Y-92624746D01*
X131094512Y-92925486D01*
X131154779Y-92965755D01*
X131774345Y-93585321D01*
X131669011Y-93628844D01*
X131379860Y-93917492D01*
X131223179Y-94294821D01*
X131222822Y-94703387D01*
X131236348Y-94736121D01*
X131205179Y-94723179D01*
X130796613Y-94722822D01*
X130419011Y-94878844D01*
X130129860Y-95167492D01*
X129973179Y-95544821D01*
X129972822Y-95953387D01*
X130128844Y-96330989D01*
X130417492Y-96620140D01*
X130794821Y-96776821D01*
X131018074Y-96777016D01*
X130397545Y-97397545D01*
X130212855Y-97673954D01*
X130148000Y-98000000D01*
X130148000Y-101897090D01*
X129897090Y-102148000D01*
X121278310Y-102148000D01*
X120028642Y-100898332D01*
X120028642Y-100051750D01*
X121473000Y-100051750D01*
X121473000Y-100159500D01*
X121598903Y-100463458D01*
X121831542Y-100696097D01*
X122135499Y-100822000D01*
X122620250Y-100822000D01*
X122827000Y-100615250D01*
X122827000Y-99845000D01*
X123273000Y-99845000D01*
X123273000Y-100615250D01*
X123479750Y-100822000D01*
X123964501Y-100822000D01*
X124268458Y-100696097D01*
X124501097Y-100463458D01*
X124627000Y-100159500D01*
X124627000Y-100051750D01*
X126873000Y-100051750D01*
X126873000Y-100159500D01*
X126998903Y-100463458D01*
X127231542Y-100696097D01*
X127535499Y-100822000D01*
X128020250Y-100822000D01*
X128227000Y-100615250D01*
X128227000Y-99845000D01*
X128673000Y-99845000D01*
X128673000Y-100615250D01*
X128879750Y-100822000D01*
X129364501Y-100822000D01*
X129668458Y-100696097D01*
X129901097Y-100463458D01*
X130027000Y-100159500D01*
X130027000Y-100051750D01*
X129820250Y-99845000D01*
X128673000Y-99845000D01*
X128227000Y-99845000D01*
X127079750Y-99845000D01*
X126873000Y-100051750D01*
X124627000Y-100051750D01*
X124420250Y-99845000D01*
X123273000Y-99845000D01*
X122827000Y-99845000D01*
X121679750Y-99845000D01*
X121473000Y-100051750D01*
X120028642Y-100051750D01*
X120028642Y-99838000D01*
X119977949Y-99568590D01*
X119818728Y-99321154D01*
X119575785Y-99155157D01*
X119542655Y-99148448D01*
X119779516Y-98912000D01*
X119957090Y-98912000D01*
X120072545Y-99027455D01*
X120348954Y-99212145D01*
X120675000Y-99277000D01*
X121473000Y-99277000D01*
X121473000Y-99338250D01*
X121679750Y-99545000D01*
X122827000Y-99545000D01*
X122827000Y-99466242D01*
X123273000Y-99466242D01*
X123273000Y-99545000D01*
X124420250Y-99545000D01*
X124627000Y-99338250D01*
X124627000Y-99230500D01*
X124501097Y-98926542D01*
X124500542Y-98925987D01*
X124541242Y-98725000D01*
X124541242Y-98618976D01*
X124628844Y-98830989D01*
X124917492Y-99120140D01*
X125294821Y-99276821D01*
X125703387Y-99277178D01*
X126080989Y-99121156D01*
X126370140Y-98832508D01*
X126526821Y-98455179D01*
X126527178Y-98046613D01*
X126371156Y-97669011D01*
X126214169Y-97511750D01*
X126873000Y-97511750D01*
X126873000Y-97619500D01*
X126998903Y-97923458D01*
X126999458Y-97924013D01*
X126958758Y-98125000D01*
X126958758Y-98725000D01*
X126997375Y-98930231D01*
X126873000Y-99230500D01*
X126873000Y-99338250D01*
X127079750Y-99545000D01*
X128227000Y-99545000D01*
X128227000Y-99466242D01*
X128673000Y-99466242D01*
X128673000Y-99545000D01*
X129820250Y-99545000D01*
X130027000Y-99338250D01*
X130027000Y-99230500D01*
X129901097Y-98926542D01*
X129900542Y-98925987D01*
X129941242Y-98725000D01*
X129941242Y-98125000D01*
X129902625Y-97919769D01*
X130027000Y-97619500D01*
X130027000Y-97511750D01*
X129820250Y-97305000D01*
X128673000Y-97305000D01*
X128673000Y-97383758D01*
X128227000Y-97383758D01*
X128227000Y-97305000D01*
X127079750Y-97305000D01*
X126873000Y-97511750D01*
X126214169Y-97511750D01*
X126082508Y-97379860D01*
X125705179Y-97223179D01*
X125642678Y-97223124D01*
X124989777Y-96570223D01*
X124721479Y-96390952D01*
X124508130Y-96348514D01*
X124541242Y-96185000D01*
X124541242Y-95585000D01*
X124514335Y-95442000D01*
X124722832Y-95442000D01*
X124722822Y-95453387D01*
X124878844Y-95830989D01*
X125167492Y-96120140D01*
X125544821Y-96276821D01*
X125953387Y-96277178D01*
X126330989Y-96121156D01*
X126620140Y-95832508D01*
X126776821Y-95455179D01*
X126777178Y-95046613D01*
X126621156Y-94669011D01*
X126332508Y-94379860D01*
X125955179Y-94223179D01*
X125892679Y-94223124D01*
X125699777Y-94030223D01*
X125431479Y-93850952D01*
X125115000Y-93788000D01*
X124512284Y-93788000D01*
X124529749Y-93701750D01*
X126873000Y-93701750D01*
X126873000Y-93809500D01*
X126998903Y-94113458D01*
X126999458Y-94114013D01*
X126958758Y-94315000D01*
X126958758Y-94915000D01*
X127009451Y-95184410D01*
X127050372Y-95248003D01*
X127017157Y-95296615D01*
X126958758Y-95585000D01*
X126958758Y-96185000D01*
X126997375Y-96390231D01*
X126873000Y-96690500D01*
X126873000Y-96798250D01*
X127079750Y-97005000D01*
X128227000Y-97005000D01*
X128227000Y-96926242D01*
X128673000Y-96926242D01*
X128673000Y-97005000D01*
X129820250Y-97005000D01*
X130027000Y-96798250D01*
X130027000Y-96690500D01*
X129901097Y-96386542D01*
X129900542Y-96385987D01*
X129941242Y-96185000D01*
X129941242Y-95585000D01*
X129890549Y-95315590D01*
X129849628Y-95251997D01*
X129882843Y-95203385D01*
X129941242Y-94915000D01*
X129941242Y-94315000D01*
X129902625Y-94109769D01*
X130027000Y-93809500D01*
X130027000Y-93701750D01*
X129820250Y-93495000D01*
X128673000Y-93495000D01*
X128673000Y-93573758D01*
X128227000Y-93573758D01*
X128227000Y-93495000D01*
X127079750Y-93495000D01*
X126873000Y-93701750D01*
X124529749Y-93701750D01*
X124541242Y-93645000D01*
X124541242Y-93045000D01*
X124514335Y-92902000D01*
X124554887Y-92902000D01*
X124628844Y-93080989D01*
X124917492Y-93370140D01*
X125294821Y-93526821D01*
X125703387Y-93527178D01*
X126080989Y-93371156D01*
X126370140Y-93082508D01*
X126454021Y-92880500D01*
X126873000Y-92880500D01*
X126873000Y-92988250D01*
X127079750Y-93195000D01*
X128227000Y-93195000D01*
X128227000Y-93116242D01*
X128673000Y-93116242D01*
X128673000Y-93195000D01*
X129820250Y-93195000D01*
X130027000Y-92988250D01*
X130027000Y-92880500D01*
X129901097Y-92576542D01*
X129900542Y-92575987D01*
X129941242Y-92375000D01*
X129941242Y-91775000D01*
X129890549Y-91505590D01*
X129849628Y-91441997D01*
X129882843Y-91393385D01*
X129941242Y-91105000D01*
X129941242Y-90505000D01*
X129890549Y-90235590D01*
X129731328Y-89988154D01*
X129488385Y-89822157D01*
X129200000Y-89763758D01*
X127700000Y-89763758D01*
X127430590Y-89814451D01*
X127183154Y-89973672D01*
X127017157Y-90216615D01*
X126958758Y-90505000D01*
X126958758Y-91105000D01*
X127009451Y-91374410D01*
X127050372Y-91438003D01*
X127017157Y-91486615D01*
X126958758Y-91775000D01*
X126958758Y-92375000D01*
X126997375Y-92580231D01*
X126873000Y-92880500D01*
X126454021Y-92880500D01*
X126526821Y-92705179D01*
X126527178Y-92296613D01*
X126371156Y-91919011D01*
X126082508Y-91629860D01*
X125705179Y-91473179D01*
X125634176Y-91473117D01*
X125391479Y-91310952D01*
X125075000Y-91248000D01*
X124512284Y-91248000D01*
X124541242Y-91105000D01*
X124541242Y-90505000D01*
X124490549Y-90235590D01*
X124331328Y-89988154D01*
X124088385Y-89822157D01*
X124027000Y-89809726D01*
X124027000Y-88283976D01*
X124194734Y-88116242D01*
X125000000Y-88116242D01*
X125269410Y-88065549D01*
X125422490Y-87967045D01*
X125531542Y-88076097D01*
X125835499Y-88202000D01*
X126320250Y-88202000D01*
X126527000Y-87995250D01*
X126527000Y-86973000D01*
X126973000Y-86973000D01*
X126973000Y-87995250D01*
X127179750Y-88202000D01*
X127664501Y-88202000D01*
X127968458Y-88076097D01*
X128201097Y-87843458D01*
X128327000Y-87539500D01*
X128327000Y-87179750D01*
X128120250Y-86973000D01*
X126973000Y-86973000D01*
X126527000Y-86973000D01*
X126507000Y-86973000D01*
X126507000Y-86527000D01*
X126527000Y-86527000D01*
X126527000Y-86507000D01*
X126973000Y-86507000D01*
X126973000Y-86527000D01*
X128120250Y-86527000D01*
X128327000Y-86320250D01*
X128327000Y-85960500D01*
X128209571Y-85677000D01*
X129866024Y-85677000D01*
X130622839Y-86433815D01*
X130622805Y-86473191D01*
X130794019Y-86887560D01*
X131110772Y-87204867D01*
X131524842Y-87376804D01*
X131973191Y-87377195D01*
X132387560Y-87205981D01*
X132704867Y-86889228D01*
X132876804Y-86475158D01*
X132877061Y-86179750D01*
X135298000Y-86179750D01*
X135298000Y-86664501D01*
X135423903Y-86968458D01*
X135656542Y-87201097D01*
X135960500Y-87327000D01*
X136320250Y-87327000D01*
X136527000Y-87120250D01*
X136527000Y-85973000D01*
X136973000Y-85973000D01*
X136973000Y-87120250D01*
X137179750Y-87327000D01*
X137539500Y-87327000D01*
X137843458Y-87201097D01*
X138076097Y-86968458D01*
X138202000Y-86664501D01*
X138202000Y-86179750D01*
X137995250Y-85973000D01*
X136973000Y-85973000D01*
X136527000Y-85973000D01*
X135504750Y-85973000D01*
X135298000Y-86179750D01*
X132877061Y-86179750D01*
X132877195Y-86026809D01*
X132705981Y-85612440D01*
X132389228Y-85295133D01*
X131975158Y-85123196D01*
X131934136Y-85123160D01*
X130905488Y-84094512D01*
X130873293Y-84073000D01*
X130604748Y-83893564D01*
X130250000Y-83823000D01*
X126586176Y-83823000D01*
X126626804Y-83725158D01*
X126627195Y-83276809D01*
X126455981Y-82862440D01*
X126185256Y-82591242D01*
X127000000Y-82591242D01*
X127269410Y-82540549D01*
X127422490Y-82442045D01*
X127531542Y-82551097D01*
X127835499Y-82677000D01*
X128170250Y-82677000D01*
X128377000Y-82470250D01*
X128377000Y-81473000D01*
X128823000Y-81473000D01*
X128823000Y-82470250D01*
X129029750Y-82677000D01*
X129364501Y-82677000D01*
X129668458Y-82551097D01*
X129901097Y-82318458D01*
X130027000Y-82014500D01*
X130027000Y-81679750D01*
X129820250Y-81473000D01*
X128823000Y-81473000D01*
X128377000Y-81473000D01*
X128357000Y-81473000D01*
X128357000Y-81027000D01*
X128377000Y-81027000D01*
X128377000Y-80029750D01*
X128823000Y-80029750D01*
X128823000Y-81027000D01*
X129820250Y-81027000D01*
X130027000Y-80820250D01*
X130027000Y-80485500D01*
X129901097Y-80181542D01*
X129668458Y-79948903D01*
X129364501Y-79823000D01*
X129029750Y-79823000D01*
X128823000Y-80029750D01*
X128377000Y-80029750D01*
X128170250Y-79823000D01*
X127835499Y-79823000D01*
X127531542Y-79948903D01*
X127421995Y-80058450D01*
X127288385Y-79967157D01*
X127000000Y-79908758D01*
X125800000Y-79908758D01*
X125530590Y-79959451D01*
X125283154Y-80118672D01*
X125117157Y-80361615D01*
X125079413Y-80548000D01*
X121372049Y-80548000D01*
X121340549Y-80380590D01*
X121181328Y-80133154D01*
X120938385Y-79967157D01*
X120650000Y-79908758D01*
X119350000Y-79908758D01*
X119080590Y-79959451D01*
X118833154Y-80118672D01*
X118667157Y-80361615D01*
X118608758Y-80650000D01*
X118608758Y-82150000D01*
X118659451Y-82419410D01*
X118818672Y-82666846D01*
X118940130Y-82749835D01*
X118833154Y-82818672D01*
X118667157Y-83061615D01*
X118608758Y-83350000D01*
X118608758Y-84109555D01*
X117834557Y-84883757D01*
X117622770Y-85200718D01*
X117548400Y-85574600D01*
X117548400Y-86771367D01*
X117263823Y-87055448D01*
X117036659Y-87602520D01*
X117036142Y-88194881D01*
X117262351Y-88742349D01*
X117680848Y-89161577D01*
X117723293Y-89179202D01*
X117696192Y-89295423D01*
X118525400Y-90124630D01*
X119354608Y-89295423D01*
X119327608Y-89179635D01*
X119367749Y-89163049D01*
X119786977Y-88744552D01*
X120014141Y-88197480D01*
X120014658Y-87605119D01*
X119788449Y-87057651D01*
X119502400Y-86771102D01*
X119502400Y-85979286D01*
X119890444Y-85591242D01*
X120650000Y-85591242D01*
X120919410Y-85540549D01*
X121166846Y-85381328D01*
X121332843Y-85138385D01*
X121345274Y-85077000D01*
X122650000Y-85077000D01*
X123023882Y-85002630D01*
X123340843Y-84790843D01*
X123654686Y-84477000D01*
X124462024Y-84477000D01*
X123594512Y-85344512D01*
X123568289Y-85383758D01*
X123500000Y-85383758D01*
X123230590Y-85434451D01*
X122983154Y-85593672D01*
X122817157Y-85836615D01*
X122758758Y-86125000D01*
X122758758Y-86930266D01*
X122572254Y-87116770D01*
X122359157Y-87259157D01*
X122147370Y-87576118D01*
X122073000Y-87950000D01*
X122073000Y-89806471D01*
X122030590Y-89814451D01*
X121783154Y-89973672D01*
X121617157Y-90216615D01*
X121558758Y-90505000D01*
X121558758Y-91105000D01*
X121609451Y-91374410D01*
X121650372Y-91438003D01*
X121617157Y-91486615D01*
X121558758Y-91775000D01*
X121558758Y-92375000D01*
X121580961Y-92493000D01*
X120197910Y-92493000D01*
X120082455Y-92377545D01*
X119813247Y-92197666D01*
X119788449Y-92137651D01*
X119369952Y-91718423D01*
X119327507Y-91700798D01*
X119354608Y-91584577D01*
X118525400Y-90755370D01*
X117696192Y-91584577D01*
X117723192Y-91700365D01*
X117683051Y-91716951D01*
X117263823Y-92135448D01*
X117036659Y-92682520D01*
X117036142Y-93274881D01*
X117262351Y-93822349D01*
X117680848Y-94241577D01*
X117700505Y-94249739D01*
X117683051Y-94256951D01*
X117263823Y-94675448D01*
X117036659Y-95222520D01*
X117036142Y-95814881D01*
X117262351Y-96362349D01*
X117680848Y-96781577D01*
X117700505Y-96789739D01*
X117683051Y-96796951D01*
X117263823Y-97215448D01*
X117036659Y-97762520D01*
X117036142Y-98354881D01*
X117262351Y-98902349D01*
X117504964Y-99145386D01*
X117493990Y-99147451D01*
X117246554Y-99306672D01*
X117080557Y-99549615D01*
X117022158Y-99838000D01*
X111972000Y-99838000D01*
X111972000Y-90282226D01*
X116912972Y-90282226D01*
X116975333Y-90911285D01*
X117096088Y-91202813D01*
X117380823Y-91269208D01*
X118210030Y-90440000D01*
X118840770Y-90440000D01*
X119669977Y-91269208D01*
X119954712Y-91202813D01*
X120137828Y-90597774D01*
X120075467Y-89968715D01*
X119954712Y-89677187D01*
X119669977Y-89610792D01*
X118840770Y-90440000D01*
X118210030Y-90440000D01*
X117380823Y-89610792D01*
X117096088Y-89677187D01*
X116912972Y-90282226D01*
X111972000Y-90282226D01*
X111972000Y-83710838D01*
X112422597Y-83710838D01*
X112776115Y-84566418D01*
X113430139Y-85221585D01*
X114285100Y-85576596D01*
X115210838Y-85577403D01*
X116066418Y-85223885D01*
X116721585Y-84569861D01*
X117076596Y-83714900D01*
X117077403Y-82789162D01*
X116723885Y-81933582D01*
X116069861Y-81278415D01*
X115214900Y-80923404D01*
X114289162Y-80922597D01*
X113433582Y-81276115D01*
X112778415Y-81930139D01*
X112423404Y-82785100D01*
X112422597Y-83710838D01*
X111972000Y-83710838D01*
X111972000Y-79252000D01*
X170058000Y-79252000D01*
X170058000Y-108128000D01*
M02*
